<svg xmlns="http://www.w3.org/2000/svg" viewBox="0 0 453.95 190.03" xmlns:v="https://vecta.io/nano"><path d="M113.06,61.44,305.82,34.52a147.4,147.4,0,0,1,146,68.77A14.72,14.72,0,0,1,447,123.54h0a14.8,14.8,0,0,1-3.52,1.57A907.26,907.26,0,0,1,166,135.51L101.31,128a57.17,57.17,0,0,1-42.13-26.88L1,6.43,62.87,1Z" fill="#ab47bc"/><path d="M448.89,101.19a15.14,15.14,0,0,0,1.65-.74A147.35,147.35,0,0,0,305.82,33.52L113.06,60.44,62.87,0,19.56,3.8,64.65,77.15A57.23,57.23,0,0,0,106.78,104l64.71,7.55a907.25,907.25,0,0,0,277.4-10.39Z" fill="#eee"/><path d="M231.67 104.89h84.79L199.24 190l-60-2.21zm-7.42-59.98L190.6 6.25l44.76-1.43 53.15 31.11" fill="#9c27b0"/><path d="M157.36 171.53l37.89 1.4 93.68-68h-57.26zM197 13.63l27.23 31.28 52.25-7.3-43-25.15zM61.87 0L0 5.43l20.36 33.12 68.53-6z" fill="#ab47bc"/><path d="M89.89,32.54,62.87,0,19.56,3.8,39.92,36.93Z" fill="#ba68c8"/><path d="M425.16,70.42a74,74,0,0,1-42.38,7.43l-7.76-1-1.38,11,7.76,1a85,85,0,0,0,52-10.34q-4-4.23-8.26-8.11Z" fill="#4fc3f7"/><path d="M146.51 101.09a.2.2 0 0 1-.13 0 .23.23 0 0 1-.07-.33l1.28-2a.24.24 0 0 1 .33-.08.26.26 0 0 1 .08.32l-1.29 2a.23.23 0 0 1-.2.09zm2.56-4.09a.27.27 0 0 1-.12 0 .23.23 0 0 1-.08-.33l1.28-2a.25.25 0 0 1 .34-.07.24.24 0 0 1 .07.33l-1.28 2a.24.24 0 0 1-.21.07zm2.57-4a.22.22 0 0 1-.13 0 .24.24 0 0 1-.07-.33l1.28-2a.23.23 0 0 1 .33-.08.24.24 0 0 1 .08.33l-1.29 2a.23.23 0 0 1-.2.08zm2.57-4.07a.2.2 0 0 1-.13 0 .23.23 0 0 1-.08-.33l1.28-2a.26.26 0 0 1 .34-.08.24.24 0 0 1 .07.33l-1.28 2a.24.24 0 0 1-.2.04zm2.56-4.07a.31.31 0 0 1-.13 0 .25.25 0 0 1-.07-.34l1.28-2a.23.23 0 0 1 .33-.07.24.24 0 0 1 .08.33l-1.29 2a.23.23 0 0 1-.2.04zm2.57-4.06a.28.28 0 0 1-.13 0 .24.24 0 0 1-.08-.33l1.29-2a.24.24 0 0 1 .4.26l-1.28 2a.23.23 0 0 1-.2.03zm2.56-4.07a.22.22 0 0 1-.13 0 .24.24 0 0 1-.07-.33l1.28-2a.24.24 0 0 1 .41.25l-1.28 2a.26.26 0 0 1-.21.04zm2.57-4.07a.28.28 0 0 1-.13 0 .26.26 0 0 1-.08-.34l1.29-2a.24.24 0 0 1 .33-.08.25.25 0 0 1 .07.34l-1.28 2a.23.23 0 0 1-.2.04zm2.53-4.1a.28.28 0 0 1-.12 0 .23.23 0 0 1-.08-.33l1.28-2a.24.24 0 0 1 .33-.07.23.23 0 0 1 .08.33l-1.28 2a.25.25 0 0 1-.21.07zm2.57-4.07a.2.2 0 0 1-.13 0 .23.23 0 0 1-.07-.33l1.28-2A.23.23 0 0 1 171 62a.24.24 0 0 1 .08.33l-1.29 2a.23.23 0 0 1-.19.16zm2.56-4.07a.19.19 0 0 1-.12 0 .23.23 0 0 1-.08-.33l1.28-2a.24.24 0 1 1 .41.26l-1.28 2a.26.26 0 0 1-.18.07z" fill="#26a69a"/><path d="M132.66 67.45a.3.3 0 0 1-.21.55c-4.07-.76-7.5-.14-8.87 1.88a3.66 3.66 0 0 0-.64 2.07c0 1.79 1.53 3.55 4 4.71a.3.3 0 0 1-.18.57 10.84 10.84 0 0 1-5.22-2.31 6.09 6.09 0 0 1-2-2.69 5.65 5.65 0 0 1 .45-4.68 5.41 5.41 0 0 1 2.44-2c3.23-1.48 7.81.56 10.23 1.9z" fill="#d50000"/><path d="M134.8 92.11a8.57 8.57 0 0 1-1.26 1.5.4.4 0 0 1-.67-.35A7.27 7.27 0 0 0 132 88a8.11 8.11 0 0 0-2.29-2.13 14.51 14.51 0 0 0-3.71-1.54 36.36 36.36 0 0 1-4-1.47c-.94-.41-7-3.22-7.41-7.91-.25-2.77 1.57-5.11 2.82-6.38a.39.39 0 0 1 .67.33 7.15 7.15 0 0 0 .59 4.13 8.48 8.48 0 0 0 3.33 3.26c2.27 1.51 3.64 1.67 5.83 2.57 3 1.27 6.8 2.82 8 6.17a8.39 8.39 0 0 1-1.03 7.08z" fill="#ffab00"/><path d="M123.11 84.58a.33.33 0 0 0-.23.6c3.37 2 5.41 4.34 5 6a3.35 3.35 0 0 1-.74 1.4c-.42.47-1.31 1.22-4.23 1.4a19.66 19.66 0 0 1-4.81-.34.33.33 0 0 0-.28.58 11.77 11.77 0 0 0 5.86 2.6c1.34.17 4.31.56 6.54-1.38a4.75 4.75 0 0 0 1.21-6.28c-1.43-2.9-5.82-4.16-8.32-4.58z" fill="#00695c"/><path d="M134.79 92.1a8 8 0 0 1-1.3 1.55.27.27 0 0 1-.44-.3 13.55 13.55 0 0 0 .79-6.49 11 11 0 0 0-.56-2.42c-2.49-6.39-15.64-5.69-16.75-10.6a6.8 6.8 0 0 1 1.13-5.26.27.27 0 0 1 .49.2 7.14 7.14 0 0 0 .57 4.25 8.38 8.38 0 0 0 3.28 3.25c2.26 1.51 3.64 1.67 5.83 2.58 3 1.26 6.8 2.81 8 6.16a8.32 8.32 0 0 1-1.04 7.08z" fill="#ffd54f"/><path d="M132.45 68c-4.07-.76-7.5-.14-8.87 1.88a3.69 3.69 0 0 0-.64 2.07c0 1.79 1.53 3.55 4 4.71a.3.3 0 0 1-.18.57h-.28c-3.49-1.69-5.74-4.46-5.36-6.5.46-2.52 5.1-5 11.13-3.47h0l.44.24a.3.3 0 0 1-.24.5z" fill="#ef5350"/><path d="M130.12 92.7c-.74 2.24-5.83 3.87-12 1.74l-.23-.18a.33.33 0 0 1 .28-.58A19.71 19.71 0 0 0 123 94c2.91-.18 3.8-.93 4.22-1.4a3.44 3.44 0 0 0 .74-1.39c.38-1.71-1.66-4-5-6a.32.32 0 0 1 .22-.6l.35.06c4.67 2.33 7.28 5.96 6.59 8.03z" fill="#26a69a"/><path d="M145.17 66.84h6.74a1.26 1.26 0 0 1 1.31 1.16l.59 14.84-8.19 12.4-1.94-27a1.41 1.41 0 0 1 1.49-1.4z" fill="#d50000"/><path d="M146.73,66.84h-1.56a1.41,1.41,0,0,0-1.49,1.41l1.94,27,2.92-4.43Z" fill="#ef5350"/><path d="M190.85 69.16L173.67 98H166l2.08-3.79 14.39-26.3a1.53 1.53 0 0 1 1.33-.78h5.9a1.35 1.35 0 0 1 1.15 2.03z" fill="#00695c"/><path d="M168.27,96.07h4.27l16.79-29h.36a1.35,1.35,0,0,1,1.16,2L173.67,98H166l1-1.91Z" fill="#26a69a"/><path d="M153.26 82.19l4.33-6.93 4.79-7.09 5.19-7.1-3.92 7.33-6.18 10.21-6.29 9.81-5.02 7.21-3.17 4.39 2.83-5.19 7.44-12.64z" fill="#ef5350"/><path d="M172.08 84.79v-.1a.2.2 0 0 1 0-.11.09.09 0 0 1 0 0L171 70.92l-5.25 8.56-1.83 3 1.26 15.14 2-3.7v-.09l4.9-8.83a0 0 0 0 0 0 0 .29.29 0 0 1 0-.13z" fill="#ffab00"/><path d="M167.26 93.82l-1.5-14.34-1.83 2.99 1.26 15.14 2.03-3.7.04-.09zm10.87-35.81l-2.65 5.19-3.81 6.41-7.33 11.94-5.13 7.68-3.93 5.6-1.73 2.25 2.37-4.56 3.69-6.46 5.31-8.52 5.13-8.05 4.56-6.57 3.52-4.91z" fill="#ffd54f"/><path d="M286.43 89.41l4.12-3.41c1.4 1.9 3.05 2.89 4.86 2.89a3.91 3.91 0 0 0 4-4.12 2.83 2.83 0 0 0-3.13-3.14c-1.24 0-1.81.17-3.63 1.16l-2.39-2 3.22-13.27h14.75l-1.07 5.52h-9.07L297 77.21a4.94 4.94 0 0 1 2.14-.41c4 0 7 2.39 7 6.93 0 6.51-5.36 10.46-10.8 10.46a10.57 10.57 0 0 1-8.91-4.78z" fill="#d50000" opacity=".88"/><path d="M309.63 84.63c0-12.28 6.26-17.55 11.79-17.55 4.28 0 7.66 3 7.66 9.64 0 12.28-6.18 17.47-11.7 17.47-4.29 0-7.75-2.96-7.75-9.56zM323.07 76c0-3-.83-3.88-2.06-3.88-2.48 0-5.28 5.44-5.28 13.27 0 3 .82 3.8 2.06 3.8 2.47-.02 5.28-5.38 5.28-13.19z" fill="#ffab00" opacity=".88"/><path d="M339.34 93.7l1.2-6h-10.67l.9-4.61 11.79-15.5h8l-3 15.08h2.84l-1 5h-2.84l-1.2 6zm2.19-11l.7-3.54 1.4-6h-.16l-3 5-3.38 4.61z" fill="#00695c" opacity=".88"/><g fill="#424242"><path d="M203.39 89.6a9.38 9.38 0 0 1-2.41-.28 4.5 4.5 0 0 1-1.8-.91 4 4 0 0 1-1.13-1.61 6.63 6.63 0 0 1-.39-2.42V82v-2.73-2.89l-.07-2.85-.13-2.61-.22-2.2 2.3-.41.23 1.81.14 2.25.08 2.5v2.54 3.43V82v2.2a6.59 6.59 0 0 0 .15 1.55 1.91 1.91 0 0 0 1.53 1.5 7.6 7.6 0 0 0 1.57.14h.43v2.21z"/><path d="M217.1,87.34V89.6h-14V87.34Z"/><path d="M230.5,87.34V89.6h-14V87.34Z"/><path d="M243.91,87.34V89.6h-14V87.34Z"/><path d="M257.32,87.34V89.6h-14V87.34Z"/><path d="M270.72,87.34V89.6h-14V87.34Z"/><path d="M270.13 87.34h1.72l1.63-.06a6.09 6.09 0 0 0 1.36-.25 3.68 3.68 0 0 0 1.1-.56 3.44 3.44 0 0 0 .85-1 2.08 2.08 0 0 0 .25-.92 2.53 2.53 0 0 0 0-.27 6.6 6.6 0 0 0-.09-1 13.27 13.27 0 0 0-.29-1.3q-.21-.72-.45-1.44l-.52-1.39-.5-1.24 2.09-1 .6 1.45.6 1.6.5 1.68a11.85 11.85 0 0 1 .31 1.69v.89a8.81 8.81 0 0 1 0 .93 3.68 3.68 0 0 1-.36 1.25 5.39 5.39 0 0 1-1 1.55 4.79 4.79 0 0 1-1.43 1 7.07 7.07 0 0 1-1.81.52 14.69 14.69 0 0 1-2.17.15h-2.35zm6.95 7.72l-2.17 2.13-2.18-2.13 2.18-2.13z"/></g></svg>