<svg xmlns="http://www.w3.org/2000/svg" viewBox="0 0 18.7 17.71"><defs><style>.cls-1{fill:#fff;}</style></defs><g id="Layer_2" data-name="Layer 2"><g id="Layer_1-2" data-name="Layer 1"><polygon class="cls-1" points="18 10.06 9.35 1.42 0.7 10.06 0 9.36 9.35 0 18.7 9.36 18 10.06"/><polygon class="cls-1" points="14.35 2.71 17.35 2.71 17.35 5.71 16.35 5.71 16.35 3.71 14.35 3.71 14.35 2.71"/><polygon class="cls-1" points="2.35 9.71 3.35 9.71 3.35 16.71 6.35 16.71 6.35 10.71 11.35 10.71 11.35 16.71 15.35 16.71 15.35 9.71 16.35 9.71 16.35 17.71 10.35 17.71 10.35 11.71 7.35 11.71 7.35 17.71 2.35 17.71 2.35 9.71"/></g></g></svg>