<svg xmlns="http://www.w3.org/2000/svg" xmlns:xlink="http://www.w3.org/1999/xlink" viewBox="0 0 346.32 306"><defs><style>.cls-1,.cls-20,.cls-21,.cls-3{fill:#68e1fd;}.cls-1{opacity:0.18;}.cls-1,.cls-14,.cls-15,.cls-17,.cls-20,.cls-21,.cls-22{isolation:isolate;}.cls-2{fill:url(#linear-gradient);}.cls-4{fill:#473f47;}.cls-17,.cls-22,.cls-5{fill:#fff;}.cls-6{fill:url(#linear-gradient-2);}.cls-7{fill:#fcbdba;}.cls-8{fill:none;}.cls-9{fill:url(#linear-gradient-3);}.cls-10{fill:url(#linear-gradient-4);}.cls-11{fill:url(#linear-gradient-5);}.cls-12{fill:url(#linear-gradient-6);}.cls-13{fill:url(#linear-gradient-7);}.cls-14,.cls-16{fill:#ffd200;}.cls-14{opacity:0.2;}.cls-15{opacity:0.08;}.cls-17{opacity:0.46;}.cls-18{fill:#f4a28c;}.cls-19{fill:#24285b;}.cls-20,.cls-22{opacity:0.58;}.cls-21{opacity:0.73;}.cls-23{opacity:0.9;}.cls-24{fill:#093f68;}.cls-25{fill:#dfeaef;}</style><linearGradient id="linear-gradient" x1="203.45" y1="-401.32" x2="199.93" y2="-285.65" gradientTransform="translate(19.19 570.58) scale(0.96)" gradientUnits="userSpaceOnUse"><stop offset="0.01"/><stop offset="0.84" stop-opacity="0"/></linearGradient><linearGradient id="linear-gradient-2" x1="0.78" y1="-540.64" x2="352.12" y2="-268.05" gradientTransform="translate(19.19 570.58) scale(0.96)" gradientUnits="userSpaceOnUse"><stop offset="0.01"/><stop offset="0.08" stop-opacity="0.69"/><stop offset="0.21" stop-opacity="0.32"/><stop offset="1" stop-opacity="0"/></linearGradient><linearGradient id="linear-gradient-3" x1="179.42" y1="-576.38" x2="175.64" y2="-401.38" xlink:href="#linear-gradient"/><linearGradient id="linear-gradient-4" x1="179.42" y1="-565.59" x2="175.64" y2="-390.59" xlink:href="#linear-gradient"/><linearGradient id="linear-gradient-5" x1="179.42" y1="-554.8" x2="175.64" y2="-379.79" xlink:href="#linear-gradient"/><linearGradient id="linear-gradient-6" x1="179.42" y1="-544" x2="175.64" y2="-369" xlink:href="#linear-gradient"/><linearGradient id="linear-gradient-7" x1="179.42" y1="-533.21" x2="175.64" y2="-358.21" xlink:href="#linear-gradient"/></defs><g id="Layer_2" data-name="Layer 2"><g id="Layer_1-2" data-name="Layer 1"><g id="Layer_1-2-2" data-name="Layer 1-2"><g id="Layer_2-2" data-name="Layer 2-2"><g id="Layer_1-2-2-2" data-name="Layer 1-2-2"><path class="cls-1" d="M191.64.07c-1,0-2,.1-3,.18A123,123,0,0,0,131.46,19a116.47,116.47,0,0,0-9.86,7.08c-9.25,7.42-17.55,16.49-21.94,27.5-2.29,5.76-3.46,11.83-4.81,17.85C91.16,87.34,85.24,103.8,72.44,114c-15.95,12.71-35.34,17.08-49.2,33C9.53,162.83,0,181.07,0,202.41c0,53.14,45.89,71.6,88.84,84.92,50.81,15.83,104.85,23.08,157.83,15.88,22.45-3.06,45.19-8.95,63.45-22.27C337.54,261,350.73,224.47,345,191.4c-2.88-16.77-8-31.93-9.33-49.17-1.79-22.48,2-45.53-4.6-67.48-11-36.43-49-60.25-84.8-67C228,4.3,210.46-.66,191.64.07Z"/><path class="cls-2" d="M304.63,272.4a4.11,4.11,0,0,1,1.13.81,2.36,2.36,0,0,1,.37,2.93,3.21,3.21,0,0,1-2.25,1l-29.8,4.64c-5.21.81-10.46,1.61-15.72,1.35A37.43,37.43,0,0,1,251,282c-4.49-1.11-8.77-3-13.31-3.85s-9.05-.29-13.59-.57c-5.43-.34-10.58-2.56-15.86-3.85-7.35-1.73-15.07-.39-22.18-2.36a102.54,102.54,0,0,0-22.77-3.45c-7.81-.35-15.63-.12-23.43-.11-3.92,0-7.83,0-11.74-.22-2.81-.14-8.23-1.81-10.8-1,11.39-3.76,23.53-4.09,35.47-4.33q15.78-.3,31.54-.46c13-.13,26.17-.17,38.91,2.63l-17.66,4.09a119.66,119.66,0,0,0,27.78,3.05l11.83-.21c4.39-.06,8.79,0,13.18,0,1.86,0,3.91-.31,5.77-.18s3.89,1.13,5.77,1.81a6.6,6.6,0,0,0,3.36.6,9.24,9.24,0,0,0,2.89-1.45c3.69-2.2,8.18-2.29,12.44-2.17a59.75,59.75,0,0,1,14.4,1.82A9.4,9.4,0,0,1,304.63,272.4Z"/><rect class="cls-3" x="120.6" y="59.38" width="95.44" height="190.5" rx="13.94"/><rect class="cls-4" x="122.48" y="61.78" width="91.67" height="185.38" rx="13.48"/><path class="cls-5" d="M211.67,77V230a12.87,12.87,0,0,1-12.74,13h-61a12.5,12.5,0,0,1-6.37-1.71A13,13,0,0,1,125.06,230V77a12.91,12.91,0,0,1,12.8-13h10.33v2A6.25,6.25,0,0,0,152,71.7a6.33,6.33,0,0,0,2.35.45H182.7a6.24,6.24,0,0,0,6.2-6.25V64.07h10a12.75,12.75,0,0,1,8.84,3.6A13,13,0,0,1,211.67,77Z"/><path class="cls-3" d="M211.67,77v45.52H125V77a12.91,12.91,0,0,1,12.8-13h10.39v2A6.25,6.25,0,0,0,152,71.7a6.33,6.33,0,0,0,2.35.45H182.7A6.23,6.23,0,0,0,189,66v-1.9h10a12.75,12.75,0,0,1,8.84,3.6A13,13,0,0,1,211.67,77Z"/><path class="cls-6" d="M120.57,185.15h31.31a7.93,7.93,0,0,0,7.8-8.06h0v-68.6a7.93,7.93,0,0,0-7.8-8.06H120.57Z"/><rect class="cls-5" x="73.24" y="100.17" width="80.71" height="79.43" rx="7.1"/><path class="cls-7" d="M232.1,163.5l-2.09-.64s-.06-.15-.15-.44A7.25,7.25,0,0,0,232.1,163.5Z"/><path class="cls-8" d="M242,125.17h-.1"/><rect class="cls-5" x="172.11" y="106.08" width="29.18" height="4.57" rx="2.25"/><rect class="cls-9" x="169.98" y="146.19" width="37.26" height="3.82" rx="1.87"/><rect class="cls-10" x="169.98" y="156.57" width="37.26" height="3.82" rx="1.87"/><rect class="cls-11" x="169.98" y="166.95" width="37.26" height="3.82" rx="1.87"/><rect class="cls-12" x="169.98" y="177.32" width="37.26" height="3.82" rx="1.87"/><rect class="cls-13" x="169.98" y="187.69" width="37.26" height="3.82" rx="1.87"/><circle class="cls-14" cx="172.69" cy="137.05" r="9.83"/><path class="cls-15" d="M198.24,210c9,2.67,22.29-6.49,31.55-14.29V153.33L212.3,180.12l-18.75,4.12L171,150.75C161.16,184,183.22,205.53,198.24,210Z"/><circle class="cls-16" cx="172.69" cy="137.05" r="4.92"/><path class="cls-3" d="M255.14,184.22v29.92s25.83,17.79,37.92-18.78-10.6-53.6-10.6-53.6Z"/><path class="cls-17" d="M255.14,184.22v29.92s25.83,17.79,37.92-18.78-10.6-53.6-10.6-53.6Z"/><path class="cls-3" d="M229.91,268.24v2.41a3,3,0,0,1-3,3h-5.78a1,1,0,0,1-.85-.42,1.07,1.07,0,0,1,.19-1.5L225,268.2Z"/><path class="cls-3" d="M268.75,268.24v2.41a3,3,0,0,0,3,3h5.77a1,1,0,0,0,.85-.42,1.06,1.06,0,0,0-.18-1.49h0l-4.56-3.57Z"/><path class="cls-18" d="M248.24,136.43v-4.94c0-1.41.25-1.19-1.15-1.33-1.58-.15-2.85.68-4.06-.69-2.25-2.49,2.1-10.66,6.25-12.18s5.08,6.8,5.08,6.8l.78,12.91Z"/><path class="cls-3" d="M234.24,200.83l33.61,1.35s24.13-33,20.74-50.54-29.31-15.22-29.31-15.22C182,127.47,234.24,200.83,234.24,200.83Z"/><path class="cls-15" d="M224.39,184c1.68,4.71,9.8,16.81,9.8,16.81l22.33.87s-16.21-15.75-9.87-27.61c9.87-18.43-10.24-30.61-10.24-30.61S222.72,179.31,224.39,184Z"/><polygon class="cls-19" points="234.24 200.83 223.99 268.22 232.53 268.22 251.33 215.18 268.02 268.21 275.49 268.2 267.86 202.14 234.24 200.83"/><path class="cls-19" d="M254.55,113.8c-4.23-2.94-7.86-.08-10.4,2.39s.32,5.16,3.18,6.59,3.75,8.91,3.75,8.91h4.06C260.29,123.81,258.78,116.75,254.55,113.8Z"/><path class="cls-3" d="M193.86,196.31C180.19,192.49,171,153.07,171,153.07l7.95-4.38,13.39,26.46a6,6,0,0,0,10,1,68.28,68.28,0,0,0,11-20.59c2.21-6.52,5.39-10.74,8.59-13.49a10.3,10.3,0,0,1,4.52-2.24,10.15,10.15,0,0,1,12,7.81C244.92,176.76,206.08,199.71,193.86,196.31Z"/><path class="cls-17" d="M193.86,196.31C180.19,192.49,171,153.07,171,153.07l7.95-4.38,13.39,26.46a6,6,0,0,0,10,1,68.28,68.28,0,0,0,11-20.59c2.21-6.52,5.39-10.74,8.59-13.49a10.3,10.3,0,0,1,4.52-2.24,10.15,10.15,0,0,1,12,7.81C244.92,176.76,206.08,199.71,193.86,196.31Z"/><path class="cls-18" d="M171,153.07c-7.15-8.57,1.6-9.59,1.6-9.59s-3.18-8.86,0-7.83,4.64,14,4.64,14Z"/><path class="cls-20" d="M70.49,260.82S60.16,258,57.92,248.38c0,0,16-3.23,16.46,13.29Z"/><path class="cls-21" d="M71.76,259.79s-7.23-11.41-.87-22.07c0,0,12.18,7.72,6.77,22.09Z"/><path class="cls-3" d="M73.62,259.8s3.81-12,15.33-14.33c0,0,2.17,7.83-7.46,14.36Z"/><polygon class="cls-19" points="66.13 259.53 68.22 273.86 81.41 273.91 83.35 259.6 66.13 259.53"/><rect class="cls-22" x="236.86" y="47.17" width="73.67" height="51.58"/><circle class="cls-1" cx="256.3" cy="62.55" r="8.6"/><rect class="cls-1" x="275.42" y="55.25" width="24.21" height="33.63"/><rect class="cls-1" x="249.18" y="77.6" width="16.63" height="11.28"/><g id="_476_qr_code_outline" data-name=" 476 qr code outline" class="cls-23"><path class="cls-24" d="M107.54,118.76v15.07H92.47V118.76Zm-3,12v-9h-9v9Z"/><path class="cls-24" d="M119.65,118.75h15.08v15.07H119.65Zm3,3v9h9v-9Z"/><path class="cls-24" d="M107.54,161H92.47V145.94h15.07ZM95.49,149v9h9v-9Z"/><path class="cls-24" d="M119.64,145.93h9v-6h3v-3h3v6h-3V149h-3v3h3v3h-6.06v-6h-6v-3Z"/><path class="cls-24" d="M113.6,136.85h-3v-6h3v-3h-3v-9.06h6v3h-3v3h3v9.06h-3Z"/><path class="cls-24" d="M113.6,139.88v6h-3v-3h-9.08v-3h-3v-3h6v3Z"/><path class="cls-24" d="M125.68,155v6H113.6v-3h9.05v-3h3Z"/><path class="cls-24" d="M113.6,158h-3v-9h3v3h3v3h-3Z"/><path class="cls-24" d="M125.66,136.88v6h-3v-3h-3v-3Z"/><path class="cls-24" d="M113.6,149v-3h3v3Z"/><path class="cls-24" d="M116.62,145.93v-3h3v3Z"/><path class="cls-24" d="M98.49,139.87v3h-3v-3Z"/><path class="cls-24" d="M113.6,139.89v-3h3v3Z"/><path class="cls-24" d="M131.71,149h3v3h-3Z"/><path class="cls-24" d="M95.48,139.88h-3v-3h3Z"/><path class="cls-24" d="M131.72,158v-3h3v3Z"/><path class="cls-24" d="M131.72,158v3h-3v-3Z"/><path class="cls-24" d="M101.5,124.78v3h-3v-3Z"/><path class="cls-24" d="M128.68,127.77h-3v-3h3Z"/><path class="cls-24" d="M98.51,152h3v3h-3Z"/><circle class="cls-24" cx="118.13" cy="150.45" r="2.14"/><path class="cls-24" d="M122.66,155h-3v-3h3Z"/><path class="cls-25" d="M87.26,127.05a.58.58,0,0,1-.6-.56v0h0V114.64a.6.6,0,0,1,.6-.6H98.55a.6.6,0,0,1,.6.6.57.57,0,0,1-.57.59H87.86v11.23a.57.57,0,0,1-.57.59h0Z"/><path class="cls-25" d="M139.93,127.05a.58.58,0,0,1-.6-.56v0h0V115.23H128.64a.58.58,0,0,1-.59-.57h0a.59.59,0,0,1,.58-.6h11.3a.6.6,0,0,1,.6.6h0v11.82a.57.57,0,0,1-.57.59h0Z"/><path class="cls-25" d="M98.55,165.72H87.26a.58.58,0,0,1-.6-.56v0h0V153.3a.6.6,0,0,1,1.2,0v11.23H98.55a.6.6,0,0,1,.6.6h0a.57.57,0,0,1-.57.59h0Z"/><path class="cls-25" d="M139.93,165.72H128.64a.58.58,0,0,1-.59-.57h0a.59.59,0,0,1,.58-.6h10.7V153.3a.6.6,0,0,1,1.2,0v11.83a.57.57,0,0,1-.57.59h0Z"/></g></g></g></g></g></g></svg>