<svg xmlns="http://www.w3.org/2000/svg" viewBox="0 0 57.45 11.68"><defs><style>.cls-1{fill:#6a1b9a;}.cls-2{fill:#fff;}</style></defs><g id="Layer_2" data-name="Layer 2"><g id="Layer_1-2" data-name="Layer 1"><path class="cls-1" d="M3.51,8.08a1.47,1.47,0,0,0,.91-.22.7.7,0,0,0,.26-.54.57.57,0,0,0-.21-.46,1.76,1.76,0,0,0-.63-.3l-.61-.2A6.41,6.41,0,0,1,2.32,6a2.63,2.63,0,0,1-.69-.44A1.82,1.82,0,0,1,1.17,5,2.24,2.24,0,0,1,1,4.11a1.94,1.94,0,0,1,.76-1.6,3.42,3.42,0,0,1,2.12-.59,5.73,5.73,0,0,1,1,.08,2.55,2.55,0,0,1,.75.22,1.56,1.56,0,0,1,.49.36.79.79,0,0,1,.18.51.87.87,0,0,1-.14.48,1.59,1.59,0,0,1-.32.36,2.49,2.49,0,0,0-.73-.33,3.9,3.9,0,0,0-1-.13,1.6,1.6,0,0,0-.85.18A.53.53,0,0,0,3,4.11a.4.4,0,0,0,.18.36,2.12,2.12,0,0,0,.56.26L4.35,5a7.79,7.79,0,0,1,1,.41,3,3,0,0,1,.71.51,1.72,1.72,0,0,1,.43.64,2.24,2.24,0,0,1,.15.84,2.17,2.17,0,0,1-.2.92A2,2,0,0,1,5.84,9a2.87,2.87,0,0,1-1,.47,4.73,4.73,0,0,1-1.31.17,5.38,5.38,0,0,1-1-.09,3.35,3.35,0,0,1-.81-.26,1.45,1.45,0,0,1-.54-.42A.87.87,0,0,1,1,8.3a.76.76,0,0,1,.19-.54,1.5,1.5,0,0,1,.41-.35,3.84,3.84,0,0,0,.81.47A2.92,2.92,0,0,0,3.51,8.08Z"/><path class="cls-1" d="M9.53,9.47a3.43,3.43,0,0,1-.48,0,1.32,1.32,0,0,1-.78-.18A.79.79,0,0,1,8,8.64v-7l.35-.07a2.33,2.33,0,0,1,.48,0,1.26,1.26,0,0,1,.77.18.82.82,0,0,1,.24.69V3.74a2.93,2.93,0,0,1,.57-.2,3,3,0,0,1,.69-.08,2.58,2.58,0,0,1,1.8.58,2.21,2.21,0,0,1,.66,1.75V9.4a2.79,2.79,0,0,1-.34.07,3.43,3.43,0,0,1-.48,0A1.32,1.32,0,0,1,12,9.32a.79.79,0,0,1-.24-.68V5.9a1,1,0,0,0-.27-.77,1,1,0,0,0-.69-.23,1.59,1.59,0,0,0-.5.08,2.65,2.65,0,0,0-.42.18V9.4A2.79,2.79,0,0,1,9.53,9.47Z"/><path class="cls-1" d="M15.21,2a.94.94,0,0,1,.28-.69A1,1,0,0,1,16.23,1a1,1,0,0,1,.74.29,1,1,0,0,1,.28.69,1,1,0,0,1-.28.71,1,1,0,0,1-.74.29,1,1,0,0,1-.74-.29A1,1,0,0,1,15.21,2ZM17.14,9.4a2.79,2.79,0,0,1-.34.07,3.38,3.38,0,0,1-.47,0,1.3,1.3,0,0,1-.78-.18c-.16-.11-.23-.34-.23-.68V3.71l.33-.07a3.58,3.58,0,0,1,.48,0,1.32,1.32,0,0,1,.78.18.85.85,0,0,1,.23.69Z"/><path class="cls-1" d="M23.39,3.52a1.14,1.14,0,0,1,.63.17.62.62,0,0,1,.26.56,2.46,2.46,0,0,1-.09.54c-.06.24-.14.51-.23.82l-.33,1-.39,1q-.19.5-.39.93c-.13.28-.24.52-.35.72a1.26,1.26,0,0,1-.43.18,2.71,2.71,0,0,1-.66.08,2.18,2.18,0,0,1-.72-.11.76.76,0,0,1-.43-.35c-.07-.13-.16-.32-.26-.56s-.21-.51-.32-.81-.24-.62-.36-1-.23-.68-.34-1-.22-.66-.32-1-.17-.59-.22-.84a1.27,1.27,0,0,1,.4-.27,1.47,1.47,0,0,1,.56-.11,1.08,1.08,0,0,1,.62.16,1,1,0,0,1,.36.6l.53,1.89c.09.34.19.67.29,1l.21.76h.06c.19-.62.37-1.3.55-2s.36-1.45.52-2.16A1.81,1.81,0,0,1,23.39,3.52Z"/><path class="cls-1" d="M27.77,3.46a4.47,4.47,0,0,1,1.14.13,2.31,2.31,0,0,1,.87.39,1.71,1.71,0,0,1,.55.67,2.06,2.06,0,0,1,.2,1V8.32a.73.73,0,0,1-.16.5,1.76,1.76,0,0,1-.39.32,3,3,0,0,1-.91.34,5.7,5.7,0,0,1-1.23.12,3.51,3.51,0,0,1-2-.47,1.61,1.61,0,0,1-.74-1.45,1.59,1.59,0,0,1,.5-1.26,2.78,2.78,0,0,1,1.51-.54l1.59-.16V5.58A.6.6,0,0,0,28.43,5a1.84,1.84,0,0,0-.9-.18,3.8,3.8,0,0,0-.89.11,4.9,4.9,0,0,0-.79.25.71.71,0,0,1-.24-.29,1,1,0,0,1-.11-.43.8.8,0,0,1,.56-.76,4,4,0,0,1,.81-.19A5.54,5.54,0,0,1,27.77,3.46Zm.07,4.79a2.39,2.39,0,0,0,.53-.06,1.26,1.26,0,0,0,.39-.13V7l-1,.09a1.52,1.52,0,0,0-.62.17.45.45,0,0,0-.23.41.53.53,0,0,0,.22.46A1.16,1.16,0,0,0,27.84,8.25Z"/><path class="cls-1" d="M38.37,3.92a2,2,0,0,1,.38-.13,2.11,2.11,0,0,1,.52-.07,1.82,1.82,0,0,1,.75.14.61.61,0,0,1,.38.39c.09.35.18.68.27,1s.17.59.25.87l.24.83c.07.27.15.55.22.85h.06c.08-.5.15-1,.22-1.43s.12-.92.18-1.36L42,3.66c0-.44.11-.89.16-1.35A1.68,1.68,0,0,1,43,2.08a1.34,1.34,0,0,1,.68.17.64.64,0,0,1,.29.59,6.5,6.5,0,0,1-.06.73c0,.33-.08.69-.15,1.1s-.13.82-.22,1.26-.17.87-.26,1.28S43.13,8,43,8.34a6.66,6.66,0,0,1-.28.81,1.38,1.38,0,0,1-.53.24,2.65,2.65,0,0,1-.74.11,2.42,2.42,0,0,1-.86-.14A.67.67,0,0,1,40.19,9c-.11-.34-.24-.76-.39-1.27s-.3-1-.46-1.64c-.06.29-.13.58-.2.87s-.15.57-.22.84-.14.52-.21.76-.13.45-.19.63a1.34,1.34,0,0,1-.48.23,2.27,2.27,0,0,1-.72.11,2.41,2.41,0,0,1-.87-.15A.84.84,0,0,1,35.94,9a4.36,4.36,0,0,1-.23-.66c-.08-.29-.17-.62-.26-1s-.19-.77-.28-1.2-.18-.86-.26-1.29-.16-.84-.23-1.25-.11-.78-.15-1.12A1.93,1.93,0,0,1,35,2.21a1.25,1.25,0,0,1,.59-.13,1.05,1.05,0,0,1,.66.19.89.89,0,0,1,.33.6c.13.75.24,1.39.32,1.92s.16,1,.22,1.36.11.69.15.95.09.48.13.68h.06c.08-.33.15-.63.23-.91s.14-.57.22-.86.15-.6.24-.94S38.27,4.36,38.37,3.92Z"/><path class="cls-1" d="M47.72,3.46a4.44,4.44,0,0,1,1.13.13,2.31,2.31,0,0,1,.87.39,1.74,1.74,0,0,1,.56.67,2.19,2.19,0,0,1,.2,1V8.32a.74.74,0,0,1-.17.5,1.39,1.39,0,0,1-.39.32,2.93,2.93,0,0,1-.91.34,5.67,5.67,0,0,1-1.22.12,3.55,3.55,0,0,1-2-.47,1.61,1.61,0,0,1-.73-1.45,1.59,1.59,0,0,1,.49-1.26,2.82,2.82,0,0,1,1.51-.54l1.6-.16V5.58A.62.62,0,0,0,48.38,5a1.84,1.84,0,0,0-.9-.18,3.82,3.82,0,0,0-.9.11,4.77,4.77,0,0,0-.78.25.72.72,0,0,1-.25-.29.94.94,0,0,1-.1-.43A.79.79,0,0,1,46,3.72a4,4,0,0,1,.81-.19A5.67,5.67,0,0,1,47.72,3.46Zm.07,4.79a2.31,2.31,0,0,0,.52-.06,1.26,1.26,0,0,0,.39-.13V7l-1,.09a1.43,1.43,0,0,0-.62.17.44.44,0,0,0-.24.41.56.56,0,0,0,.22.46A1.17,1.17,0,0,0,47.79,8.25Z"/><path class="cls-1" d="M52.92,8q-.27-.6-.63-1.56a25.93,25.93,0,0,1-.73-2.51,1.27,1.27,0,0,1,.4-.27,1.47,1.47,0,0,1,.56-.11,1.08,1.08,0,0,1,.62.16,1.09,1.09,0,0,1,.37.6c.18.58.36,1.16.54,1.72l.54,1.72h0c.1-.27.2-.57.3-.89s.2-.66.3-1,.19-.7.27-1.06.16-.7.22-1a1.68,1.68,0,0,1,.78-.2,1.24,1.24,0,0,1,.66.17.58.58,0,0,1,.28.55,5.25,5.25,0,0,1-.15,1.1c-.1.44-.24.91-.4,1.39s-.35,1-.55,1.44a10.36,10.36,0,0,1-.63,1.25,9.36,9.36,0,0,1-1.21,1.7,1.57,1.57,0,0,1-1.09.56,1.05,1.05,0,0,1-.74-.27,1.14,1.14,0,0,1-.34-.69,9.79,9.79,0,0,0,.79-.79,7,7,0,0,0,.71-.9,1.09,1.09,0,0,1-.43-.27A2.64,2.64,0,0,1,52.92,8Z"/><path class="cls-2" d="M2.51,7.08a1.42,1.42,0,0,0,.9-.22.68.68,0,0,0,.27-.54.57.57,0,0,0-.21-.46,1.85,1.85,0,0,0-.63-.3l-.61-.2A6.41,6.41,0,0,1,1.32,5a2.88,2.88,0,0,1-.7-.44A1.93,1.93,0,0,1,.17,4,2.24,2.24,0,0,1,0,3.11a1.94,1.94,0,0,1,.76-1.6A3.42,3.42,0,0,1,2.89.92a5.73,5.73,0,0,1,1,.08,2.55,2.55,0,0,1,.75.22,1.56,1.56,0,0,1,.49.36.79.79,0,0,1,.18.51.87.87,0,0,1-.14.48,1.59,1.59,0,0,1-.32.36,2.49,2.49,0,0,0-.73-.33,3.9,3.9,0,0,0-1-.13,1.6,1.6,0,0,0-.85.18A.53.53,0,0,0,2,3.11a.4.4,0,0,0,.18.36,2.12,2.12,0,0,0,.56.26L3.35,4a7.79,7.79,0,0,1,1,.41,3,3,0,0,1,.71.51,1.72,1.72,0,0,1,.43.64,2.24,2.24,0,0,1,.15.84,2.17,2.17,0,0,1-.2.92A2,2,0,0,1,4.84,8a2.87,2.87,0,0,1-1,.47,4.73,4.73,0,0,1-1.31.17,5.38,5.38,0,0,1-1-.09,3.35,3.35,0,0,1-.81-.26A1.45,1.45,0,0,1,.2,7.85.87.87,0,0,1,0,7.3a.76.76,0,0,1,.19-.54A1.5,1.5,0,0,1,.6,6.41a3.84,3.84,0,0,0,.81.47A2.92,2.92,0,0,0,2.51,7.08Z"/><path class="cls-2" d="M8.53,8.47a3.43,3.43,0,0,1-.48,0,1.32,1.32,0,0,1-.78-.18A.79.79,0,0,1,7,7.64V.6L7.38.53a2.33,2.33,0,0,1,.48,0,1.26,1.26,0,0,1,.77.18.82.82,0,0,1,.24.69V2.74a2.93,2.93,0,0,1,.57-.2,3,3,0,0,1,.69-.08,2.58,2.58,0,0,1,1.8.58,2.21,2.21,0,0,1,.66,1.75V8.4a2.79,2.79,0,0,1-.34.07,3.43,3.43,0,0,1-.48,0A1.32,1.32,0,0,1,11,8.32a.79.79,0,0,1-.24-.68V4.9a1,1,0,0,0-.27-.77,1,1,0,0,0-.69-.23,1.59,1.59,0,0,0-.5.08,2.65,2.65,0,0,0-.42.18V8.4A2.79,2.79,0,0,1,8.53,8.47Z"/><path class="cls-2" d="M14.21,1a.94.94,0,0,1,.28-.69A1,1,0,0,1,15.23,0,1,1,0,0,1,16,.29a1,1,0,0,1,.28.69,1,1,0,0,1-.28.71,1,1,0,0,1-.74.29,1,1,0,0,1-.74-.29A1,1,0,0,1,14.21,1ZM16.14,8.4a2.79,2.79,0,0,1-.34.07,3.43,3.43,0,0,1-.48,0,1.28,1.28,0,0,1-.77-.18c-.16-.11-.23-.34-.23-.68V2.71l.33-.07a3.58,3.58,0,0,1,.48,0,1.32,1.32,0,0,1,.78.18.85.85,0,0,1,.23.69Z"/><path class="cls-2" d="M22.39,2.52a1.14,1.14,0,0,1,.63.17.62.62,0,0,1,.26.56,2.46,2.46,0,0,1-.09.54c-.06.24-.14.51-.23.82l-.33,1-.39,1q-.19.5-.39.93c-.13.28-.24.52-.35.72a1.26,1.26,0,0,1-.43.18,2.71,2.71,0,0,1-.66.08,2.18,2.18,0,0,1-.72-.11.76.76,0,0,1-.43-.35c-.07-.13-.16-.32-.26-.56s-.21-.51-.32-.81-.24-.62-.36-1-.23-.68-.34-1-.22-.66-.32-1-.17-.59-.22-.84a1.27,1.27,0,0,1,.4-.27,1.47,1.47,0,0,1,.56-.11,1.08,1.08,0,0,1,.62.16,1,1,0,0,1,.36.6l.53,1.89c.09.34.19.67.29,1l.21.76h.06c.19-.62.37-1.3.55-2s.36-1.45.52-2.16A1.81,1.81,0,0,1,22.39,2.52Z"/><path class="cls-2" d="M26.77,2.46a4.47,4.47,0,0,1,1.14.13,2.31,2.31,0,0,1,.87.39,1.71,1.71,0,0,1,.55.67,2.06,2.06,0,0,1,.2,1V7.32a.73.73,0,0,1-.16.5,1.76,1.76,0,0,1-.39.32,3,3,0,0,1-.91.34,5.7,5.7,0,0,1-1.23.12,3.51,3.51,0,0,1-2-.47,1.61,1.61,0,0,1-.74-1.45,1.59,1.59,0,0,1,.5-1.26,2.78,2.78,0,0,1,1.51-.54l1.59-.16V4.58A.6.6,0,0,0,27.43,4a1.84,1.84,0,0,0-.9-.18,3.8,3.8,0,0,0-.89.11,4.9,4.9,0,0,0-.79.25.71.71,0,0,1-.24-.29,1,1,0,0,1-.11-.43.8.8,0,0,1,.56-.76,4,4,0,0,1,.81-.19A5.54,5.54,0,0,1,26.77,2.46Zm.07,4.79a2.39,2.39,0,0,0,.53-.06,1.26,1.26,0,0,0,.39-.13V6l-1,.09a1.52,1.52,0,0,0-.62.17.45.45,0,0,0-.23.41.53.53,0,0,0,.22.46A1.16,1.16,0,0,0,26.84,7.25Z"/><path class="cls-2" d="M37.37,2.92a2,2,0,0,1,.38-.13,2.11,2.11,0,0,1,.52-.07,1.82,1.82,0,0,1,.75.14.61.61,0,0,1,.38.39c.09.35.18.68.27,1s.17.59.25.87l.24.83c.07.27.15.55.22.85h.06c.08-.5.15-1,.22-1.43s.12-.92.18-1.36L41,2.66c0-.44.11-.89.16-1.35A1.68,1.68,0,0,1,42,1.08a1.34,1.34,0,0,1,.68.17.64.64,0,0,1,.29.59,6.5,6.5,0,0,1-.06.73c0,.33-.08.69-.15,1.1s-.13.82-.22,1.26-.17.87-.26,1.28S42.13,7,42,7.34a6.66,6.66,0,0,1-.28.81,1.38,1.38,0,0,1-.53.24,2.65,2.65,0,0,1-.74.11,2.42,2.42,0,0,1-.86-.14A.67.67,0,0,1,39.19,8c-.11-.34-.24-.76-.39-1.27s-.3-1-.46-1.64c-.06.29-.13.58-.2.87s-.15.57-.22.84-.14.52-.21.76-.13.45-.19.63a1.34,1.34,0,0,1-.48.23,2.27,2.27,0,0,1-.72.11,2.41,2.41,0,0,1-.87-.15A.84.84,0,0,1,34.94,8a4.36,4.36,0,0,1-.23-.66c-.08-.29-.17-.62-.26-1s-.19-.77-.28-1.2-.18-.86-.26-1.29-.16-.84-.23-1.25-.11-.78-.15-1.12A1.93,1.93,0,0,1,34,1.21a1.25,1.25,0,0,1,.59-.13,1.05,1.05,0,0,1,.66.19.89.89,0,0,1,.33.6c.13.75.24,1.39.32,1.92s.16,1,.22,1.36.11.69.15.95.09.48.13.68h.06c.08-.33.15-.63.23-.91s.14-.57.22-.86.15-.6.24-.94S37.27,3.36,37.37,2.92Z"/><path class="cls-2" d="M46.72,2.46a4.44,4.44,0,0,1,1.13.13,2.31,2.31,0,0,1,.87.39,1.74,1.74,0,0,1,.56.67,2.19,2.19,0,0,1,.2,1V7.32a.74.74,0,0,1-.17.5,1.39,1.39,0,0,1-.39.32,2.93,2.93,0,0,1-.91.34,5.67,5.67,0,0,1-1.22.12,3.55,3.55,0,0,1-2-.47,1.61,1.61,0,0,1-.73-1.45,1.59,1.59,0,0,1,.49-1.26,2.82,2.82,0,0,1,1.51-.54l1.6-.16V4.58A.62.62,0,0,0,47.38,4a1.84,1.84,0,0,0-.9-.18,3.82,3.82,0,0,0-.9.11,4.77,4.77,0,0,0-.78.25.72.72,0,0,1-.25-.29.94.94,0,0,1-.1-.43A.79.79,0,0,1,45,2.72a4,4,0,0,1,.81-.19A5.67,5.67,0,0,1,46.72,2.46Zm.07,4.79a2.31,2.31,0,0,0,.52-.06,1.26,1.26,0,0,0,.39-.13V6l-1,.09a1.43,1.43,0,0,0-.62.17.44.44,0,0,0-.24.41.56.56,0,0,0,.22.46A1.17,1.17,0,0,0,46.79,7.25Z"/><path class="cls-2" d="M51.92,7q-.27-.6-.63-1.56a25.93,25.93,0,0,1-.73-2.51,1.27,1.27,0,0,1,.4-.27,1.47,1.47,0,0,1,.56-.11,1.08,1.08,0,0,1,.62.16,1.09,1.09,0,0,1,.37.6L53,5c.19.57.37,1.14.55,1.72h0c.1-.27.19-.57.3-.89s.2-.66.3-1,.19-.7.27-1.06.16-.7.22-1a1.68,1.68,0,0,1,.78-.2,1.24,1.24,0,0,1,.66.17.58.58,0,0,1,.28.55,5.25,5.25,0,0,1-.15,1.1c-.1.44-.24.91-.4,1.39s-.35,1-.55,1.44a10.36,10.36,0,0,1-.63,1.25,9.36,9.36,0,0,1-1.21,1.7,1.57,1.57,0,0,1-1.09.56,1.05,1.05,0,0,1-.74-.27,1.2,1.2,0,0,1-.35-.69,8.44,8.44,0,0,0,.8-.79,6.11,6.11,0,0,0,.7-.9,1.13,1.13,0,0,1-.42-.27A2.64,2.64,0,0,1,51.92,7Z"/></g></g></svg>