<svg xmlns="http://www.w3.org/2000/svg" viewBox="0 0 168.16 142.39"><defs><style>.cls-1,.cls-7{fill:#26a69a;}.cls-2{fill:#d50000;}.cls-3{fill:#ffab00;}.cls-4{fill:#00695c;}.cls-5{fill:#ffd54f;}.cls-6{fill:#ef5350;}.cls-7{font-size:22px;font-family:SimplyRounded-Italic, Simply Rounded;font-style:italic;}</style></defs><g id="Layer_2" data-name="Layer 2"><g id="Layer_1-2" data-name="Layer 1"><path class="cls-1" d="M75.54,90.11a.7.7,0,0,1-.34-.1.65.65,0,0,1-.21-.9l2.67-4.23a.66.66,0,0,1,.9-.2.65.65,0,0,1,.2.89L76.09,89.8A.64.64,0,0,1,75.54,90.11Zm5.34-8.46a.64.64,0,0,1-.35-.1.66.66,0,0,1-.2-.9L83,76.42a.65.65,0,0,1,1.1.7l-2.67,4.23A.66.66,0,0,1,80.88,81.65Zm5.33-8.46a.65.65,0,0,1-.54-1L88.33,68a.65.65,0,1,1,1.1.69l-2.67,4.23A.65.65,0,0,1,86.21,73.19Zm5.34-8.46a.65.65,0,0,1-.55-1l2.67-4.23a.64.64,0,0,1,.89-.21.65.65,0,0,1,.21.9L92.1,64.43A.63.63,0,0,1,91.55,64.73Zm5.34-8.45a.74.74,0,0,1-.35-.1.65.65,0,0,1-.2-.9L99,51.05a.66.66,0,0,1,.9-.2.65.65,0,0,1,.2.89L97.44,56A.66.66,0,0,1,96.89,56.28Zm5.33-8.46a.74.74,0,0,1-.35-.1.66.66,0,0,1-.2-.9l2.67-4.23a.65.65,0,1,1,1.1.7l-2.67,4.22A.64.64,0,0,1,102.22,47.82Zm5.34-8.46a.64.64,0,0,1-.35-.1.66.66,0,0,1-.2-.9l2.66-4.23a.66.66,0,0,1,.9-.2.65.65,0,0,1,.2.9l-2.66,4.23A.68.68,0,0,1,107.56,39.36Zm5.33-8.46a.59.59,0,0,1-.34-.1.64.64,0,0,1-.21-.89L115,25.68a.65.65,0,0,1,.9-.21.66.66,0,0,1,.2.9l-2.67,4.23A.65.65,0,0,1,112.89,30.9Zm5.34-8.46a.65.65,0,0,1-.55-1l2.66-4.23a.64.64,0,0,1,.9-.2.63.63,0,0,1,.2.89l-2.66,4.23A.65.65,0,0,1,118.23,22.44ZM123.56,14a.67.67,0,0,1-.34-.1A.65.65,0,0,1,123,13l2.67-4.23a.66.66,0,0,1,.9-.2.65.65,0,0,1,.2.89l-2.67,4.23A.64.64,0,0,1,123.56,14Zm5.34-8.46a.64.64,0,0,1-.35-.1.66.66,0,0,1-.2-.9L131,.3a.65.65,0,0,1,.89-.2.65.65,0,0,1,.21.9l-2.67,4.23A.68.68,0,0,1,128.9,5.53Z"/><path class="cls-2" d="M46.74,20a.62.62,0,0,1-.42,1.15c-8.47-1.58-15.62-.29-18.45,3.91a7.62,7.62,0,0,0-1.34,4.3c.06,3.73,3.19,7.39,8.24,9.8a.63.63,0,0,1-.38,1.18,22.45,22.45,0,0,1-10.85-4.79,12.86,12.86,0,0,1-4.26-5.6c-.17-.48-1.86-5.42.92-9.74a11.25,11.25,0,0,1,5.09-4.13C32.18,13,41.71,17.21,46.74,20Z"/><path class="cls-3" d="M15.13,22.33a.82.82,0,0,1,1.4.69,14.74,14.74,0,0,0,1.23,8.59c1.6,3.26,4.14,5,6.75,6.76,4.71,3.15,7.57,3.48,12.13,5.36C43,46.36,50.78,49.59,53.26,56.55c1.71,4.79.62,10.56-2.08,14.72a16.71,16.71,0,0,1-2.62,3.13.82.82,0,0,1-1.37-.74c.45-2.74.61-7.16-1.93-10.91a16.79,16.79,0,0,0-4.76-4.43c-2.17-1.44-3.78-1.88-7.61-3.22a74.52,74.52,0,0,1-8.2-3.05c-2-.87-14.54-6.71-15.42-16.45C8.76,29.83,12.54,25,15.13,22.33Z"/><path class="cls-4" d="M26.88,55.61a.68.68,0,0,0-.46,1.26c7,4.18,11.23,9,10.45,12.57a7.13,7.13,0,0,1-1.55,2.9c-.86,1-2.72,2.54-8.78,2.9a40.05,40.05,0,0,1-10-.69A.68.68,0,0,0,16,75.74a24.13,24.13,0,0,0,12.18,5.41c2.79.37,9,1.17,13.61-2.87a9.87,9.87,0,0,0,2.51-13C41.16,59.11,32.08,56.58,26.88,55.61Z"/><path class="cls-5" d="M51.18,71.26a16.85,16.85,0,0,1-2.72,3.23.57.57,0,0,1-.91-.62,28,28,0,0,0,1.65-13.5,23.4,23.4,0,0,0-1.17-5c-5.17-13.28-32.52-11.84-34.83-22a14.24,14.24,0,0,1,.45-7.2,14,14,0,0,1,1.9-3.74.57.57,0,0,1,1,.42,14.91,14.91,0,0,0,1.19,8.84c1.6,3.26,4.14,5,6.75,6.75,4.71,3.16,7.57,3.48,12.12,5.37C43,46.34,50.77,49.57,53.26,56.54,55,61.33,53.87,67.09,51.18,71.26Z"/><path class="cls-6" d="M46.31,21.14c-8.47-1.58-15.61-.29-18.45,3.91a7.62,7.62,0,0,0-1.34,4.3c.06,3.73,3.19,7.39,8.24,9.8a.63.63,0,0,1-.38,1.18l-.57-.1c-7.27-3.51-12-9.27-11.16-13.52,1-5.23,10.61-10.4,23.16-7.22h0l.92.5A.62.62,0,0,1,46.31,21.14Z"/><path class="cls-1" d="M41.47,72.5c-1.54,4.67-12.13,8.06-25,3.63L16,75.74a.68.68,0,0,1,.58-1.19,40,40,0,0,0,10,.69c6.06-.36,7.92-1.92,8.78-2.9a7.13,7.13,0,0,0,1.55-2.9c.78-3.55-3.45-8.39-10.45-12.57a.68.68,0,0,1,.46-1.26l.73.14C37.46,60.57,42.89,68.21,41.47,72.5Z"/><path class="cls-2" d="M72.76,18.73h14a2.6,2.6,0,0,1,2.72,2.35l1.23,30.86-17,25.78-4-56A2.92,2.92,0,0,1,72.76,18.73Z"/><path class="cls-6" d="M76,18.73H72.75a2.91,2.91,0,0,0-3.08,2.93l4,56.06,6.07-9.2Z"/><path class="cls-4" d="M167.76,23.54,132,83.49h-16l4.32-7.89L150.3,20.91a3.2,3.2,0,0,1,2.78-1.62h12.26A2.81,2.81,0,0,1,167.76,23.54Z"/><path class="cls-1" d="M120.79,79.52h8.88l34.92-60.23h.75a2.81,2.81,0,0,1,2.42,4.25L132,83.49h-16l2.18-4Z"/><polygon class="cls-6" points="89.59 50.65 98.59 36.25 108.55 21.49 119.35 6.73 111.19 21.97 98.35 43.21 85.27 63.61 74.83 78.61 68.23 87.73 74.11 76.93 89.59 50.65"/><path class="cls-3" d="M128.73,56.06a.47.47,0,0,1,0-.17v0a.44.44,0,0,1,0-.23s0-.07,0-.11L126.5,27.2,115.58,45l-3.81,6.21,2.62,31.49,4.22-7.7.1-.18,10-18.32s0,0,0-.07a.46.46,0,0,1,0-.26A.48.48,0,0,1,128.73,56.06Z"/><polygon class="cls-5" points="118.71 74.83 115.58 45.01 111.77 51.22 114.39 82.71 118.61 75.01 118.71 74.83"/><polygon class="cls-5" points="141.31 0.37 135.79 11.17 127.87 24.49 112.63 49.33 101.95 65.29 93.79 76.93 90.19 81.61 95.11 72.13 102.79 58.69 113.83 40.99 124.51 24.25 133.99 10.57 141.31 0.37"/><text class="cls-7" transform="translate(19.71 113.97)"><tspan xml:space="preserve">Shiva  Way</tspan></text><path class="cls-1" d="M29.7,134.59a5.51,5.51,0,0,1,.2-1.45,6.44,6.44,0,0,1,.55-1.37,6.34,6.34,0,0,1,.86-1.21,6.1,6.1,0,0,1,1.12-1,5.63,5.63,0,0,1,1.33-.64,4.92,4.92,0,0,1,2-.2,3.46,3.46,0,0,1,.53.09,5,5,0,0,1,.58.2c.2.08.42.19.66.31l-1.05,2.77a2.81,2.81,0,0,0-.92-.25,3.08,3.08,0,0,0-.91.06,3,3,0,0,0-.86.31,3.3,3.3,0,0,0-.75.51,3.53,3.53,0,0,0-.6.68,2.74,2.74,0,0,0-.38.79,4.21,4.21,0,0,0,.76.25l1,.29c.37.11.74.24,1.12.39a4.2,4.2,0,0,1,1,.57,2.79,2.79,0,0,1,.75.82,2.21,2.21,0,0,1,.29,1.15,3.73,3.73,0,0,1-.31,1.57,3.94,3.94,0,0,1-.83,1.22,5,5,0,0,1-1.22.89,8.52,8.52,0,0,1-1.47.59,10.68,10.68,0,0,1-1.59.33,12.07,12.07,0,0,1-1.55.1,8.66,8.66,0,0,1-2.56-.36,5.81,5.81,0,0,1-2-1.06,5,5,0,0,1-1.33-1.74,5.63,5.63,0,0,1-.48-2.39,10.86,10.86,0,0,1,.35-2.69,21,21,0,0,1,.89-2.68l2.54,1.06-.42,1.05c-.13.35-.25.7-.35,1s-.18.69-.25,1a6,6,0,0,0-.09,1,2.16,2.16,0,0,0,.32,1.21,2.28,2.28,0,0,0,.85.78,3.89,3.89,0,0,0,1.19.41,7.73,7.73,0,0,0,1.36.12,12,12,0,0,0,2.8-.28A3.75,3.75,0,0,0,34.7,138l-1.4-.32c-.43-.1-.84-.21-1.21-.33a7.18,7.18,0,0,1-1-.4,3,3,0,0,1-.75-.54,2.31,2.31,0,0,1-.47-.77A3.06,3.06,0,0,1,29.7,134.59Z"/><path class="cls-1" d="M37.86,139.38a17.51,17.51,0,0,0,1.78-.48,12.32,12.32,0,0,0,1.48-.59,7.21,7.21,0,0,0,1.12-.69,3,3,0,0,0,.71-.73H42a5.85,5.85,0,0,1-1.52-.32,3.61,3.61,0,0,1-1.16-.69,3.07,3.07,0,0,1-.76-1.08,3.88,3.88,0,0,1-.26-1.46,4.31,4.31,0,0,1,.13-1.05,5.3,5.3,0,0,1,.36-1.06,5.82,5.82,0,0,1,.56-1,5.06,5.06,0,0,1,.72-.8,3.28,3.28,0,0,1,.83-.54,2.23,2.23,0,0,1,.91-.2A2.71,2.71,0,0,1,43,129a3.81,3.81,0,0,1,1,.76,5.51,5.51,0,0,1,.82,1.11,8.79,8.79,0,0,1,.61,1.32,9,9,0,0,1,.37,1.42,7.29,7.29,0,0,1,.13,1.37,6.74,6.74,0,0,1-.27,1.94,6.88,6.88,0,0,1-.76,1.65,7.26,7.26,0,0,1-1.17,1.37,9.64,9.64,0,0,1-1.5,1.1,11.36,11.36,0,0,1-1.76.83,13.65,13.65,0,0,1-1.92.55Zm3.86-7.74a.72.72,0,0,0-.43.15,1.51,1.51,0,0,0-.34.37,2.09,2.09,0,0,0-.22.48,1.39,1.39,0,0,0-.09.47.34.34,0,0,0,.14.26,1.16,1.16,0,0,0,.37.18,3.19,3.19,0,0,0,.51.12,5.93,5.93,0,0,0,.59.07l.59,0h.51a2.92,2.92,0,0,0-.17-.74,2.51,2.51,0,0,0-.36-.69,1.84,1.84,0,0,0-.49-.51A1,1,0,0,0,41.72,131.64Z"/><path class="cls-1" d="M52.54,136.65c0-.34,0-.7.06-1.09l.06-1.15c0-.38,0-.76,0-1.12s0-.69,0-1c0-1,0-1.84-.07-2.64s-.09-1.54-.15-2.18-.13-1.21-.19-1.7-.12-.89-.16-1.22l3-1c.12.76.22,1.51.29,2.24s.12,1.43.16,2.08.07,1.24.08,1.79,0,1,0,1.38v1.13c0,.42,0,.85,0,1.3s0,.91,0,1.37,0,.9-.06,1.33Z"/><path class="cls-1" d="M56.33,139.38a18.25,18.25,0,0,0,1.78-.48,12.32,12.32,0,0,0,1.48-.59,7.21,7.21,0,0,0,1.12-.69,3,3,0,0,0,.71-.73h-1a5.76,5.76,0,0,1-1.52-.32,3.77,3.77,0,0,1-1.17-.69,3.18,3.18,0,0,1-.75-1.08,3.88,3.88,0,0,1-.26-1.46,4.31,4.31,0,0,1,.13-1.05,5.3,5.3,0,0,1,.36-1.06,5.82,5.82,0,0,1,.56-1,4.61,4.61,0,0,1,.72-.8,3.11,3.11,0,0,1,.83-.54,2.23,2.23,0,0,1,.91-.2,2.76,2.76,0,0,1,1.07.21,3.32,3.32,0,0,1,.92.58,4.3,4.3,0,0,1,.78.86,7.31,7.31,0,0,1,.61,1.06,8,8,0,0,1,.45,1.18,9.23,9.23,0,0,1,.27,1.22h.47v3.1h-.65a6.21,6.21,0,0,1-1,2,7.59,7.59,0,0,1-1.62,1.58,10.22,10.22,0,0,1-2.08,1.16,14.89,14.89,0,0,1-2.38.73Zm3.86-7.74a.68.68,0,0,0-.43.15,1.51,1.51,0,0,0-.34.37,2.09,2.09,0,0,0-.22.48,1.39,1.39,0,0,0-.09.47.34.34,0,0,0,.14.26,1.21,1.21,0,0,0,.36.18,3.62,3.62,0,0,0,.52.12,5.6,5.6,0,0,0,.59.07l.59,0h.51a2.92,2.92,0,0,0-.17-.74,2.81,2.81,0,0,0-.36-.69,2,2,0,0,0-.49-.51A1,1,0,0,0,60.19,131.64Z"/><path class="cls-1" d="M71.91,133.79v3.1H64.5v-3.1Z"/><path class="cls-1" d="M79,133.79v3.1H71.6v-3.1Z"/><path class="cls-1" d="M86.11,133.79v3.1H78.69v-3.1Z"/><path class="cls-1" d="M93.2,133.79v3.1H85.79v-3.1Z"/><path class="cls-1" d="M100.3,133.79v3.1H92.89v-3.1Z"/><path class="cls-1" d="M107.4,133.79v3.1H100v-3.1Z"/><path class="cls-1" d="M114.07,133.79v3.1h-.17a4.74,4.74,0,0,1-.75-.06,4.91,4.91,0,0,1-.71-.19,2.67,2.67,0,0,1-.61-.3,1.32,1.32,0,0,1-.42-.39,1.87,1.87,0,0,1-.58.43,5.09,5.09,0,0,1-.81.29,6.86,6.86,0,0,1-1,.16,9.07,9.07,0,0,1-1,.06h-.93v-3.1H108l.87,0a2.52,2.52,0,0,0,.63-.12.75.75,0,0,0,.38-.28,1,1,0,0,0,.17-.49,2.66,2.66,0,0,0,0-.78c0-.31-.1-.68-.2-1.12l2.79-.69c0,.2.09.43.13.71s.09.56.12.84a8.4,8.4,0,0,1,.05.85,3.56,3.56,0,0,1,0,.69.5.5,0,0,0,.21.24.81.81,0,0,0,.29.12,1.35,1.35,0,0,0,.28,0h.4Zm-3.85,5.08-1.47,1.47-1.52-1.51,1.5-1.51,1.49,1.49,1.47-1.48,1.52,1.52-1.51,1.51Z"/><path class="cls-1" d="M113.91,133.79a1.23,1.23,0,0,0,.83-.28,2.12,2.12,0,0,0,.59-.74,5.26,5.26,0,0,0,.44-1.09c.13-.42.25-.85.37-1.32l2.63.49c0,.2-.1.41-.15.65s-.11.47-.15.71-.08.47-.11.7a4.62,4.62,0,0,0,0,.6,1.24,1.24,0,0,0,.07.43.24.24,0,0,0,.22.17.87.87,0,0,0,.5-.2,1.87,1.87,0,0,0,.4-.47,3.77,3.77,0,0,0,.31-.67c.09-.25.16-.51.23-.78s.12-.54.17-.81.1-.53.14-.77l2.35.39c0,.17,0,.37-.07.6s-.06.48-.08.73,0,.5,0,.74a3.18,3.18,0,0,0,.07.66,1.09,1.09,0,0,0,.24.48.55.55,0,0,0,.45.18,1.14,1.14,0,0,0,.65-.16.87.87,0,0,0,.33-.42,1.53,1.53,0,0,0,.09-.62,4.91,4.91,0,0,0-.1-.73c-.06-.25-.14-.51-.23-.77s-.19-.5-.29-.73-.19-.44-.28-.62l-.21-.44,2.31-1.29q.21.47.45,1.05c.16.39.3.79.43,1.22s.23.86.32,1.31a7.11,7.11,0,0,1,.13,1.27,4.89,4.89,0,0,1-.23,1.54A3,3,0,0,1,126,136a3,3,0,0,1-1.17.74,4.62,4.62,0,0,1-1.66.27,2.3,2.3,0,0,1-.74-.12,3,3,0,0,1-1.16-.71,2.07,2.07,0,0,1-.35-.41,2.47,2.47,0,0,1-.37.44,2.51,2.51,0,0,1-.5.4,2.64,2.64,0,0,1-.64.28,2.45,2.45,0,0,1-.78.12,2.1,2.1,0,0,1-.71-.09,2.82,2.82,0,0,1-.61-.27,2.11,2.11,0,0,1-.49-.39,1.73,1.73,0,0,1-.33-.45,1.41,1.41,0,0,1-.34.44,2,2,0,0,1-.52.35,3.48,3.48,0,0,1-.71.23,3.85,3.85,0,0,1-.86.09h-.28v-3.1Zm7.18-7.08-1.47,1.47-1.52-1.51,1.51-1.51,1.48,1.48,1.48-1.47,1.51,1.51-1.5,1.51Zm1.4-2.29-1.39,1.39-1.4-1.4,1.39-1.39Z"/></g></g></svg>