<svg xmlns="http://www.w3.org/2000/svg" viewBox="0 0 14 17.5"><defs><style>.cls-1{fill:#fff;}</style></defs><g id="Layer_2" data-name="Layer 2"><g id="Layer_1-2" data-name="Layer 1"><path class="cls-1" d="M7,1.17A5.83,5.83,0,0,0,1.17,7V8.17H2.33A1.16,1.16,0,0,1,3.5,9.33v3.5A1.17,1.17,0,0,1,2.33,14H1.17A1.17,1.17,0,0,1,0,12.83V7A7,7,0,0,1,14,7v7a2.92,2.92,0,0,1-2.92,2.92H8.59a1.15,1.15,0,0,1-1,.58H6.42a1.17,1.17,0,1,1,0-2.33H7.58a1.15,1.15,0,0,1,1,.58h2.49A1.75,1.75,0,0,0,12.83,14H11.67a1.17,1.17,0,0,1-1.17-1.17V9.33a1.16,1.16,0,0,1,1.17-1.16h1.16V7A5.83,5.83,0,0,0,7,1.17Z"/></g></g></svg>