<svg xmlns="http://www.w3.org/2000/svg" viewBox="0 0 404.77 304.53"><defs><style>.cls-1,.cls-13,.cls-14,.cls-8{fill:#68e1fd;}.cls-1{opacity:0.18;}.cls-1,.cls-11,.cls-12,.cls-13,.cls-14,.cls-16,.cls-2,.cls-7{isolation:isolate;}.cls-2,.cls-4{fill:#e6e6e6;}.cls-2{opacity:0.3;}.cls-3{fill:#ccc;}.cls-5,.cls-7{opacity:0.39;}.cls-6,.cls-7{fill:#c9c9c9;}.cls-9{fill:#f4a28c;}.cls-10{fill:#ffd200;}.cls-11{fill:#ce8172;opacity:0.31;}.cls-12{opacity:0.08;}.cls-13{opacity:0.58;}.cls-14{opacity:0.73;}.cls-15{fill:#24285b;}.cls-16,.cls-17{fill:#fff;}.cls-16{opacity:0.2;}</style></defs><g id="Layer_2" data-name="Layer 2"><g id="Layer_1-2" data-name="Layer 1"><path class="cls-1" d="M359.88,277.24c-23,13.66-51.87,20-80.4,23.53-67.34,8.31-136.24,2.25-201.19-12.42-12.17-2.74-24.53-5.71-36.4-9.29h0A52,52,0,0,1,9.12,250C3.41,236.79,0,220.08,0,201.89c0-19.21,3.81-36.79,10.12-50.3a52.81,52.81,0,0,1,26-25.69l1.84-.84a134.44,134.44,0,0,0,16.6-8.91C70.71,105.72,78,89.21,82.42,73.29c1.63-6,3-12.09,5.83-17.88,5.41-11,15.83-20.25,27.48-27.84q6-3.88,12.45-7.26A187.82,187.82,0,0,1,200.66.41c1.27-.09,2.54-.21,3.81-.23C228.42-1,250.84,3.61,274.15,6.65c45.68,5.95,94.44,28.85,109,64.87,8.76,21.72,4.31,44.75,7,67.08,2,17.15,8.74,32.12,12.68,48.76C410.66,220.15,394.46,256.8,359.88,277.24Z"/><ellipse class="cls-2" cx="205.54" cy="263.24" rx="156.42" ry="19.97"/><rect class="cls-3" x="117.14" y="59.74" width="215.59" height="149.71"/><rect class="cls-4" x="135.39" y="73.77" width="94.29" height="115.23"/><g class="cls-5"><rect class="cls-6" x="187.49" y="91.81" width="9.13" height="2.88"/><rect class="cls-6" x="199.74" y="91.81" width="22.84" height="2.88"/><rect class="cls-6" x="187.49" y="101.13" width="22.75" height="2.88"/><rect class="cls-6" x="213.16" y="101.13" width="9.41" height="2.88"/><rect class="cls-6" x="198.91" y="110.45" width="23.66" height="2.88"/><rect class="cls-6" x="187.49" y="110.45" width="8.86" height="2.88"/><rect class="cls-6" x="187.49" y="119.76" width="27.13" height="2.88"/></g><rect class="cls-7" x="143.11" y="91.81" width="35.89" height="39.56"/><rect class="cls-8" x="135.39" y="73.77" width="94.29" height="10.56"/><rect class="cls-7" x="191.7" y="141.1" width="30.88" height="2.66"/><rect class="cls-7" x="143.11" y="141.1" width="44.93" height="2.66"/><rect class="cls-7" x="200.65" y="151.31" width="21.92" height="2.66"/><rect class="cls-7" x="143.11" y="151.31" width="53.16" height="2.66"/><rect class="cls-7" x="143.11" y="161.52" width="27.04" height="2.66"/><rect class="cls-7" x="177.46" y="161.52" width="45.12" height="2.66"/><rect class="cls-7" x="143.11" y="171.73" width="69.23" height="2.66"/><path class="cls-9" d="M166.52,102.89s1.33,6.36.76,10.78a3.27,3.27,0,0,1-3.67,2.81h0a7.28,7.28,0,0,1-6.24-4.73l-2.56-5.43a5.82,5.82,0,0,1,1.82-6.5C159.87,96.8,166,99,166.52,102.89Z"/><polygon class="cls-9" points="155.22 107.3 154.38 128.61 166.15 128.23 162.03 112.89 155.22 107.3"/><path class="cls-10" d="M164.94,103.33a25.73,25.73,0,0,1-6,.25,5.43,5.43,0,0,1,.7,5.91,4.4,4.4,0,0,1-5.07,2.38l-.89-8.31a6.69,6.69,0,0,1,2.64-6.27,26.5,26.5,0,0,1,2.62-1.68c2.28-1.24,6-.06,7.92-1.93a1.56,1.56,0,0,1,2.21.06,1.6,1.6,0,0,1,.38.67c.67,2.48.69,6.51-2.56,8.29A6.05,6.05,0,0,1,164.94,103.33Z"/><path class="cls-9" d="M160.32,109.22s-.34-2.49-2.19-2-1.37,4,1.21,4.06Z"/><path class="cls-9" d="M167.15,107l2.1,2.28a1,1,0,0,1,0,1.44,1.13,1.13,0,0,1-.45.26l-2.42.76Z"/><path class="cls-11" d="M163.07,116.2a7.77,7.77,0,0,1-4.06-1.8s.63,3.85,5.34,7.17Z"/><path class="cls-8" d="M157.18,125.29h7.76a5,5,0,0,1,5,5v1.12H152.18v-1.12a5,5,0,0,1,5-5Z"/><rect class="cls-12" x="247.35" y="101.42" width="76.95" height="94.02"/><rect class="cls-4" x="239.88" y="92.09" width="76.95" height="94.02"/><g class="cls-5"><rect class="cls-6" x="282.39" y="106.82" width="7.45" height="2.34"/><rect class="cls-6" x="292.37" y="106.82" width="18.64" height="2.34"/><rect class="cls-6" x="282.39" y="114.42" width="18.55" height="2.34"/><rect class="cls-6" x="303.33" y="114.42" width="7.67" height="2.34"/><rect class="cls-6" x="291.7" y="122.02" width="19.31" height="2.34"/><rect class="cls-6" x="282.39" y="122.02" width="7.23" height="2.34"/><rect class="cls-6" x="282.39" y="129.62" width="22.14" height="2.34"/></g><rect class="cls-7" x="246.17" y="106.82" width="29.29" height="32.29"/><rect class="cls-8" x="239.88" y="92.09" width="76.95" height="8.62"/><rect class="cls-7" x="285.82" y="147.04" width="25.19" height="2.17"/><rect class="cls-7" x="246.17" y="147.04" width="36.67" height="2.17"/><rect class="cls-7" x="293.12" y="155.36" width="17.88" height="2.17"/><rect class="cls-7" x="246.17" y="155.36" width="43.37" height="2.17"/><rect class="cls-7" x="246.17" y="163.7" width="22.06" height="2.17"/><rect class="cls-7" x="274.19" y="163.7" width="36.81" height="2.17"/><rect class="cls-7" x="246.17" y="172.03" width="56.49" height="2.17"/><path class="cls-9" d="M267.19,115.48a34.92,34.92,0,0,1,.65,9.29,2.82,2.82,0,0,1-3.17,2.42h0a6.2,6.2,0,0,1-5.37-4.06L257,118.46a5.08,5.08,0,0,1,1.58-5.6C261.49,110.23,266.66,112.1,267.19,115.48Z"/><polygon class="cls-9" points="257.45 119.3 256.73 137.64 266.87 137.33 263.32 124.1 257.45 119.3"/><path class="cls-9" d="M267.73,119l1.81,2a.91.91,0,0,1-.05,1.27.94.94,0,0,1-.35.2l-2,.66Z"/><path class="cls-11" d="M264.22,127a6.69,6.69,0,0,1-3.48-1.55s.53,3.32,4.58,6.17Z"/><path class="cls-10" d="M266.87,113s0,6.22-5.78,6.36c.1,0-.2,3.44-.22,3.61-.31,2.39.31,4.84.26,7.27a2.35,2.35,0,0,1-.25,1.22,2.32,2.32,0,0,1-1.27.8,17,17,0,0,1-8.63.51,2.47,2.47,0,0,1-2.32-2.62,2.54,2.54,0,0,1,.23-.91,18.4,18.4,0,0,1,1.13-4.06c.47-1.18,1.18-2.25,1.63-3.4a34,34,0,0,0,2-8.12,10.52,10.52,0,0,1,.53-2.49,7.44,7.44,0,0,1,2.2-2.83,4.73,4.73,0,0,1,3.31-.92C265.88,107.34,267.35,110,266.87,113Z"/><path class="cls-9" d="M261.84,120.94s-.29-2.13-1.88-1.77-1.18,3.44,1,3.47Z"/><path class="cls-8" d="M269.23,139.25H253.76V139a5.08,5.08,0,0,1,5.08-5.07h5.39A5.07,5.07,0,0,1,269.3,139v.28Z"/><path class="cls-12" d="M113.18,133.54a18.61,18.61,0,0,1,2.2-.8,42.34,42.34,0,0,1,11.25-1.43c6.09-.18,13,.08,18.78,2.22,5.46,2,8.68,7.11,10.65,12.33.62,1.64.89,2.8,2.95,2.52a38.91,38.91,0,0,0,18.67-7.94c4.88-3.85,9.13-9,15.15-10.57a2.36,2.36,0,0,1,1.44,0c.81.3,1.09,1.3,1.16,2.15a14.61,14.61,0,0,1-2.38,8.64,50.37,50.37,0,0,1-5.68,7.1c-6.24,7-12.18,14.45-20.3,19.29a6.77,6.77,0,0,0-3,2.64c-1.45,3.23-.06,34.86,0,40.17H127.54l-16.89-43.43c-3.05-7.78-10.15-19.29-4.5-27.35A16.15,16.15,0,0,1,113.18,133.54Z"/><path class="cls-13" d="M309.88,250.77S300.12,248.1,298,239c0,0,15.12-3.05,15.55,12.54Z"/><path class="cls-14" d="M311.1,249.81S304.29,239,310.29,229c0,0,11.49,7.3,6.38,20.88Z"/><path class="cls-8" d="M312.83,249.81s3.6-11.38,14.49-13.53c0,0,2,7.39-7.1,13.56Z"/><polygon class="cls-15" points="305.75 249.56 307.73 263.08 320.19 263.13 322.02 249.63 305.75 249.56"/><path class="cls-9" d="M71.7,212.13s.83,12.18,6.58,9-1.45-9-1.45-9Z"/><path class="cls-8" d="M89.46,133.26s-40.77,29-18.71,78.87h6.09S73.64,176,89.46,158.79,89.46,133.26,89.46,133.26Z"/><path class="cls-16" d="M89.46,133.26s-40.77,29-18.71,78.87h6.09S73.64,176,89.46,158.79,89.46,133.26,89.46,133.26Z"/><polygon class="cls-9" points="100.58 117.61 104.05 128.03 95.81 133.26 92.84 115.21 100.58 117.61"/><path class="cls-9" d="M90.43,109a5.07,5.07,0,0,1,6.65-2.69,5,5,0,0,1,1.78,1.27c2.76,2.94,6.09,7.62,2.32,10.15-5.76,3.89-11-3.38-11-3.38A9.21,9.21,0,0,1,90.43,109Z"/><path class="cls-9" d="M95.37,111.54s-1.87-1.57-2.73.65,2.47,3.31,3.45,2.19S95.37,111.54,95.37,111.54Z"/><rect class="cls-10" x="62.41" y="186.7" width="41.57" height="28.99" transform="translate(-47.58 27.13) rotate(-14.45)"/><polygon class="cls-12" points="80.34 186.43 86.79 205.4 86.44 214.75 95.69 212.4 99.8 195.55 88.59 184.28 80.34 186.43"/><path class="cls-8" d="M86.2,138.41a21.09,21.09,0,0,1,13.19-11.53c11.17-3.36,31.8.32,38.08,10.79,8.61,14.33-4,59.89-4,59.89l-37.57,2.85S75.19,163.09,86.2,138.41Z"/><polygon class="cls-15" points="133.5 197.5 128.55 262.16 120.73 262.16 113.74 211.92 96.45 200.41 133.5 197.5"/><polygon class="cls-15" points="96.45 200.41 85.66 262.16 94.04 262.16 112.16 210.86 96.45 200.41"/><path class="cls-12" d="M102.65,125.85s-17.59,56.67,33.22,60.43l-2.39,11.22-37.56,2.91s-13.26-20.81-12.69-50c0,0,.32-14.45,10.5-20.85A22.86,22.86,0,0,1,102.65,125.85Z"/><path class="cls-8" d="M87.62,262l-5.08,3.72a1.11,1.11,0,0,0-.31,1.54,1.1,1.1,0,0,0,1,.49h8.47a1.1,1.1,0,0,0,1.1-1.1v-4.62Z"/><path class="cls-8" d="M127.57,262l4.76,3.72a1.12,1.12,0,0,1,.27,1.56,1.11,1.11,0,0,1-1,.47h-6a3.22,3.22,0,0,1-3.22-3.21h0v-2.51Z"/><path class="cls-15" d="M90.64,116.53s1.84,3.33,4.87,2.29.86-8.2.86-8.2,3.67-5.3,3.14-9.49a2.36,2.36,0,0,0-4.47-.59,4.14,4.14,0,0,1-3.53,2.18C86.34,103.29,81.6,111.45,90.64,116.53Z"/><path class="cls-8" d="M127,129.28s24.59,13.82,32.26,13.82,26.78-14.42,26.78-14.42l4.06,8.42s-16.24,25.32-30.75,23.35-37-14.63-37-14.63Z"/><path class="cls-9" d="M186.08,128.71s3.59-7.38,4.77-7.29.73,2.47.73,2.47,3.84-4.3,4.94-3.66,1.19,10.23-6.4,16.9Z"/><rect class="cls-15" x="117.14" y="46.31" width="215.59" height="13.43"/><circle class="cls-17" cx="137.17" cy="53.02" r="3.52"/><circle class="cls-8" cx="147.66" cy="53.02" r="3.52"/><circle class="cls-10" cx="157.53" cy="53.02" r="3.52"/><rect class="cls-16" x="241.8" y="73.77" width="75.02" height="8.26"/></g></g></svg>