<svg xmlns="http://www.w3.org/2000/svg" viewBox="0 0 158.94 118.46"  xmlns:v="https://vecta.io/nano"><path d="M122.34.5L65.16 91.15" fill="none" stroke="#26a69a" stroke-linecap="round" stroke-miterlimit="10" stroke-dasharray="5 5"/><path d="M37.52 19.84a.62.62 0 0 1-.43 1.16c-8.46-1.58-15.61-.29-18.45 3.91a7.62 7.62 0 0 0-1.34 4.3c.06 3.73 3.19 7.39 8.24 9.8a.63.63 0 0 1-.38 1.18 22.42 22.42 0 0 1-10.84-4.79 12.79 12.79 0 0 1-4.27-5.6c-.17-.48-1.86-5.42.92-9.74a11.26 11.26 0 0 1 5.1-4.13c6.93-3.11 16.41 1.13 21.45 3.91z" fill="#d50000"/><path d="M5.9 22.18a.83.83 0 0 1 1.41.69 14.72 14.72 0 0 0 1.22 8.59c1.61 3.26 4.15 5 6.76 6.76 4.71 3.15 7.57 3.48 12.12 5.36C33.74 46.21 41.55 49.44 44 56.4c1.75 4.79.65 10.6-2 14.72a16.71 16.71 0 0 1-2.62 3.13.83.83 0 0 1-1.38-.74c.45-2.74.61-7.16-1.93-10.91a16.79 16.79 0 0 0-4.76-4.43c-2.16-1.44-3.77-1.88-7.61-3.22a74.52 74.52 0 0 1-8.2-3.05C13.5 51 .92 45.19.05 35.45-.47 29.68 3.31 24.81 5.9 22.18z" fill="#ffab00"/><path d="M17.65,55.46a.68.68,0,0,0-.46,1.26c7,4.18,11.23,9,10.45,12.57a7,7,0,0,1-1.54,2.9c-.87,1-2.72,2.54-8.79,2.9a40,40,0,0,1-10-.69.68.68,0,0,0-.58,1.19A24,24,0,0,0,18.9,81c2.79.37,9,1.17,13.61-2.87a10.8,10.8,0,0,0,3.85-6.39A10.76,10.76,0,0,0,35,65.08C31.93,59,22.85,56.43,17.65,55.46Z" fill="#00695c"/><path d="M42 71.11a17.24 17.24 0 0 1-2.73 3.23.57.57 0 0 1-.91-.62A28 28 0 0 0 40 60.22a23.4 23.4 0 0 0-1.17-5C33.64 41.9 6.29 43.34 4 33.13a14.18 14.18 0 0 1 2.32-10.94.57.57 0 0 1 1 .43 14.74 14.74 0 0 0 1.19 8.83c1.6 3.26 4.14 5 6.75 6.75 4.71 3.16 7.57 3.48 12.12 5.37 6.36 2.62 14.17 5.85 16.62 12.82 1.75 4.79.65 10.55-2 14.72z" fill="#ffd54f"/><path d="M37.09,21c-8.47-1.58-15.61-.29-18.45,3.91a7.62,7.62,0,0,0-1.34,4.3c.06,3.73,3.19,7.39,8.24,9.8a.63.63,0,0,1-.38,1.18l-.57-.1c-7.27-3.51-11.95-9.27-11.16-13.52,1-5.23,10.61-10.4,23.16-7.22h0l.92.5A.62.62,0,0,1,37.09,21Z" fill="#ef5350"/><path d="M32.25 72.35C30.71 77 20.12 80.41 7.21 76l-.48-.39a.68.68 0 0 1 .58-1.19 40 40 0 0 0 10 .69c6.06-.36 7.92-1.92 8.78-2.9a7.13 7.13 0 0 0 1.55-2.9c.78-3.55-3.45-8.39-10.45-12.57a.68.68 0 0 1 .46-1.26l.73.14c9.86 4.8 15.29 12.44 13.87 16.73z" fill="#26a69a"/><path d="M63.53 18.58h14a2.62 2.62 0 0 1 2.73 2.35l1.22 30.86-17 25.78-4-56a2.93 2.93 0 0 1 3.05-2.99z" fill="#d50000"/><path d="M66.77,18.58H63.52a2.92,2.92,0,0,0-3.08,2.93l4,56.06,6.07-9.2Z" fill="#ef5350"/><path d="M158.54 23.39l-35.74 60h-16l34.24-62.58a3.2 3.2 0 0 1 2.78-1.62h12.26a2.81 2.81 0 0 1 2.46 4.2z" fill="#00695c"/><path d="M111.57,79.37h8.88l34.92-60.23h.75a2.81,2.81,0,0,1,2.42,4.25l-35.74,60h-16l2.18-4Z" fill="#26a69a"/><path d="M80.36 50.5l9-14.4 9.96-14.76 10.8-14.76-8.16 15.24-12.84 21.24-13.08 20.4-10.44 15-6.6 9.12 5.88-10.8L80.36 50.5z" fill="#ef5350"/><path d="M119.5 55.92a.54.54 0 0 1 0-.18.58.58 0 0 1 0-.23.43.43 0 0 1 0-.11l-2.18-28.31-10.97 17.77-3.81 6.21 2.62 31.49 4.32-7.88 10-18.32a.17.17 0 0 1 0-.07.46.46 0 0 1 0-.26.4.4 0 0 1 .02-.11z" fill="#ffab00"/><path d="M109.48 74.68l-3.13-29.82-3.81 6.21 2.62 31.49 4.32-7.88zM132.08.22l-5.52 10.8-7.92 13.32-15.24 24.84-10.68 15.96-8.16 11.64-3.6 4.68 4.92-9.48 7.68-13.44 11.04-17.7 10.68-16.74 9.48-13.68 7.32-10.2z" fill="#ffd54f"/><path d="M18.78 105.18A5.24 5.24 0 0 1 21.3 107a3.35 3.35 0 0 1 .37 2.63 5.3 5.3 0 0 1-2 3.14 7.82 7.82 0 0 1-4.93 1.47 9.93 9.93 0 0 1-2.81-.51 1 1 0 0 1-.7-.67 1.32 1.32 0 0 1 .07-1.06h0a1.88 1.88 0 0 1 .88-.9 1.47 1.47 0 0 1 1.15-.12 7.13 7.13 0 0 0 2.18.44 3.33 3.33 0 0 0 1.73-.4 1.66 1.66 0 0 0 .84-1.11 1.09 1.09 0 0 0-.31-1.06 4.87 4.87 0 0 0-1.68-.91q-3.77-1.45-3.14-4.4a5.05 5.05 0 0 1 2.23-3.22A7.4 7.4 0 0 1 19.52 99a9.53 9.53 0 0 1 2.35.39 1 1 0 0 1 .73.64 1.39 1.39 0 0 1-.07 1.09h0a1.87 1.87 0 0 1-.83.84 1.49 1.49 0 0 1-1.08.13 6.08 6.08 0 0 0-1.72-.28 3 3 0 0 0-1.64.42 1.49 1.49 0 0 0-.69.92 1 1 0 0 0 .41 1.06 8.08 8.08 0 0 0 1.8.97zm16.49 6.99a2 2 0 0 1-.73 1.16 2 2 0 0 1-1.27.48h0a1.3 1.3 0 0 1-1.07-.48 1.33 1.33 0 0 1-.23-1.16l.87-4c.25-1.21.07-2-.53-2.31a2.27 2.27 0 0 0-2.23.18 2.9 2.9 0 0 0-1.43 1.35 2.3 2.3 0 0 0-.09.25l-1 4.55a2 2 0 0 1-.74 1.17 1.94 1.94 0 0 1-1.27.48h0a1.3 1.3 0 0 1-1.07-.48 1.35 1.35 0 0 1-.23-1.17l2.57-12.07a2.07 2.07 0 0 1 .73-1.19 2 2 0 0 1 1.28-.48h0a1.34 1.34 0 0 1 1.08.48 1.41 1.41 0 0 1 .23 1.18l-.86 4.16a18 18 0 0 1 2.8-1.29c1.71-.33 2.91.1 3.62 1.3a5.77 5.77 0 0 1 .38 4.1zm3.84 1.72a1.37 1.37 0 0 1-1.14-.52 1.43 1.43 0 0 1-.24-1.23l1.51-7.1a2.24 2.24 0 0 1 .76-1.24 2.16 2.16 0 0 1 1.37-.51h0a1.35 1.35 0 0 1 1.12.51 1.45 1.45 0 0 1 .26 1.24l-1.52 7.1a2.29 2.29 0 0 1-2.12 1.75zm3.82-12.1a2.16 2.16 0 0 1-1.39.53 1.44 1.44 0 0 1-1.18-.53 1.5 1.5 0 0 1-.25-1.29 2.21 2.21 0 0 1 .8-1.27 2.16 2.16 0 0 1 1.39-.53 1.43 1.43 0 0 1 1.44 1.8 2.24 2.24 0 0 1-.81 1.29zm10.35 1.5a1.21 1.21 0 0 1 1.19.7 1.51 1.51 0 0 1-.1 1.5L50.64 112a3.83 3.83 0 0 1-1.36 1.38 3.35 3.35 0 0 1-1.78.53h0a2.27 2.27 0 0 1-1.56-.55 2.18 2.18 0 0 1-.75-1.41l-.85-6.46a1.79 1.79 0 0 1 .54-1.5 2 2 0 0 1 1.48-.68h.2a1.35 1.35 0 0 1 .93.32 1.23 1.23 0 0 1 .41.85q.39 4.74.38 6.22h.08q.61-1.43 3.09-6.23a2.06 2.06 0 0 1 .79-.84 1.84 1.84 0 0 1 1-.32zm2.43 5.17a6.83 6.83 0 0 1 2.34-3.84A6 6 0 0 1 62 103a2 2 0 0 1 2.17 1.59h0a1.5 1.5 0 0 1 .54-.88 1.47 1.47 0 0 1 1-.37h.88a1 1 0 0 1 1.01 1.26l-1.83 8.58a.79.79 0 0 1-.31.49.83.83 0 0 1-.52.2h-1.42c-.22 0-.46-.2-.74-.59a.7.7 0 0 0-.5-.29 1 1 0 0 0-.64.14 4.68 4.68 0 0 1-1.91.74 3.86 3.86 0 0 1-3.31-1.59 4.55 4.55 0 0 1-.71-3.82zm3.24-.08a3 3 0 0 0 .21 2.07 1.5 1.5 0 0 0 1.39.85 2.29 2.29 0 0 0 1.12-.1 2.14 2.14 0 0 0 1.49-1.7l.57-2.69a1.4 1.4 0 0 0-.95-1 2.66 2.66 0 0 0-2.18.11 2.38 2.38 0 0 0-1 .92 3.82 3.82 0 0 0-.59 1.44zm40.78-9.1a1.31 1.31 0 0 1 1.27.72 1.59 1.59 0 0 1-.13 1.58l-6 10.46a3.46 3.46 0 0 1-1.29 1.34 3.33 3.33 0 0 1-1.69.49h-.05a2.23 2.23 0 0 1-1.58-.58 2.13 2.13 0 0 1-.66-1.5l-.27-6.13-2.87 6.13a3.61 3.61 0 0 1-1.3 1.5 3.21 3.21 0 0 1-1.82.58h0a2.33 2.33 0 0 1-1.48-.49 2.09 2.09 0 0 1-.74-1.34l-1.63-10.44A1.91 1.91 0 0 1 80 100a2.09 2.09 0 0 1 1.58-.74h0a1.47 1.47 0 0 1 1 .33 1.35 1.35 0 0 1 .43.87l.55 5 .32 5.17H84q.64-1.55 4.45-9.91a2.57 2.57 0 0 1 .92-1.08 2.31 2.31 0 0 1 1.3-.42h0a1.56 1.56 0 0 1 1.12.42 1.54 1.54 0 0 1 .47 1.08q.24 8.37.23 9.91h.07q1.08-2.47 2.52-5.17l2.69-5a2.41 2.41 0 0 1 .81-.87 2 2 0 0 1 1.09-.33zm2.87 9.18a6.83 6.83 0 0 1 2.34-3.84 6 6 0 0 1 4-1.59 2 2 0 0 1 2.17 1.59h0a1.5 1.5 0 0 1 .54-.88 1.47 1.47 0 0 1 1-.37h.88a1 1 0 0 1 1.01 1.26l-1.83 8.58a.79.79 0 0 1-.31.49.83.83 0 0 1-.52.2h-1.42c-.22 0-.46-.2-.74-.59a.72.72 0 0 0-.5-.29 1 1 0 0 0-.64.14 4.68 4.68 0 0 1-1.91.74 3.86 3.86 0 0 1-3.31-1.59 4.55 4.55 0 0 1-.76-3.85zm3.24-.08a3 3 0 0 0 .21 2.07 1.5 1.5 0 0 0 1.39.85 2.29 2.29 0 0 0 1.12-.1 2.14 2.14 0 0 0 1.49-1.7l.57-2.69a1.4 1.4 0 0 0-1-1 2.66 2.66 0 0 0-2.18.11 2.38 2.38 0 0 0-1 .92 4 4 0 0 0-.6 1.44zm21.01-5.06a1.15 1.15 0 0 1 1.15.68 1.43 1.43 0 0 1-.11 1.39l-5.37 9.58a6.81 6.81 0 0 1-2.55 2.76 4.94 4.94 0 0 1-3.65.67 2.64 2.64 0 0 1-.51-.18 1 1 0 0 1-.51-1.18h0a1.55 1.55 0 0 1 .56-.89 1.47 1.47 0 0 1 1-.37 2.34 2.34 0 0 0 .92-.22 3 3 0 0 0 1.52-2.31v-.05a39.44 39.44 0 0 0-1.31-7.67 1.58 1.58 0 0 1 .42-1.45 1.79 1.79 0 0 1 1.41-.69h.18a1.23 1.23 0 0 1 .83.29 1.12 1.12 0 0 1 .4.75l.74 6.35c.42-1 1.47-3.07 3.15-6.32a1.88 1.88 0 0 1 .71-.77 1.75 1.75 0 0 1 1-.3z" fill="#00695c"/></svg>