<svg xmlns="http://www.w3.org/2000/svg" viewBox="0 0 368 479"><defs><style>.cls-1{fill:#827f7e;}.cls-2{fill:#b2b0ad;}.cls-3{fill:#a3a09d;}</style></defs><g id="Layer_2" data-name="Layer 2"><g id="Layer_1-2" data-name="Layer 1"><path class="cls-1" d="M253.94,41h-20V24a4,4,0,0,0-4-4H138.06a4,4,0,0,0-4,4V41h-20V10a10,10,0,0,1,10-10H243.94a10,10,0,0,1,10,10Z"/><path class="cls-2" d="M289.93,479H78.07a20,20,0,0,1-19.9-18L20,85H348L309.83,461a20,20,0,0,1-19.9,18Z"/><path class="cls-1" d="M184,439.5a6,6,0,0,1-6-6V130.93a6,6,0,0,1,12,0V433.5A6,6,0,0,1,184,439.5Z"/><path class="cls-1" d="M144,439.5a6,6,0,0,1-6-5.72L124,131.21a6,6,0,1,1,12-.55l14,302.56a6,6,0,0,1-5.71,6.27Z"/><path class="cls-1" d="M104,439.5a6,6,0,0,1-6-5.41L68,131.53A6,6,0,1,1,80,130.34l30,302.57a6,6,0,0,1-5.38,6.56l-.6,0Z"/><path class="cls-1" d="M224,439.5h-.28a6,6,0,0,1-5.71-6.27l14-302.56a6,6,0,1,1,12,.55L230,433.78a6,6,0,0,1-6,5.72Z"/><path class="cls-1" d="M264,439.5l-.6,0a6,6,0,0,1-5.38-6.56l30-302.57A6,6,0,1,1,300,131.53L270,434.09a6,6,0,0,1-6,5.41Z"/><path class="cls-3" d="M308,85,269.83,461a20,20,0,0,1-19.9,18h40a20,20,0,0,0,19.9-18L348,85Z"/><path class="cls-1" d="M358,41H10A10,10,0,0,0,0,51V75A10,10,0,0,0,10,85H358a10,10,0,0,0,10-10V51A10,10,0,0,0,358,41Z"/></g></g></svg>