<svg xmlns="http://www.w3.org/2000/svg" viewBox="0 0 512 396.47" xmlns:v="https://vecta.io/nano"><path d="M93.14 49.9c0-12.1 8.8-24.87 26.07-34.84 31.54-18.21 79.25-20.18 106.56-4.41 12.25 7.06 18.29 16.5 18.42 26.4h0v30.71h0v.3h0v30.23h0v.3h0v15.69h0v.73h0v15.69h0c.34 12.29-8.48 25.33-26.06 35.48-31.54 18.21-79.25 20.19-106.56 4.42-12.67-7.31-18.64-17.17-18.35-27.44v-15.32-1.09-15.32-.67V80.9v-.67l-.09-15h0V49.9z" fill="#dca700"/><path d="M111.56 107.66c27.31 15.77 75 13.79 106.56-4.41 17.44-10.07 26.24-23 26-35.19h0v15.69h0c.34 12.29-8.48 25.34-26.06 35.49-31.54 18.2-79.25 20.18-106.56 4.41-12.67-7.31-18.64-17.16-18.35-27.43V80.9c.06 10.03 6.02 19.61 18.41 26.76zm0 30.53c27.31 15.77 75 13.8 106.56-4.41 17.44-10.07 26.24-23 26-35.19h0v15.69h0c.34 12.3-8.48 25.34-26.06 35.49-31.48 18.23-79.19 20.23-106.5 4.42-12.67-7.32-18.64-17.19-18.35-27.44v-15.31c0 10.02 5.96 19.56 18.35 26.75z" fill="#cc8200"/><path d="M119.21 15.06c-31.54 18.21-35 45.76-7.65 61.53s75 13.79 106.56-4.42 35-45.75 7.65-61.52-75.02-13.8-106.56 4.41z" fill="#dca700"/><path d="M244.19,37.05c.16,12.18-8.66,25.07-26.07,35.12-31.54,18.21-79.25,20.19-106.56,4.42C99.2,69.45,93.15,59.9,93.14,49.9h0V65.21S93.59,82,111.56,92.64c27.15,16,75,13.79,106.56-4.42C235.7,78.08,244.52,65,244.18,52.74h0V37.05Z" fill="#cc8200"/><path d="M128,20.14c-25.93,15-28.75,37.62-6.29,50.59s61.7,11.35,87.64-3.63,28.76-37.63,6.29-50.6S153.93,5.16,128,20.14Z" fill="#ffd800"/><path d="M512 133.83v66.03L170.67 396.47 0 298.05v-65.69h0L341.33 35.29 512 133.83" fill="#007a6e"/><path d="M512 133.83v66.03L170.67 396.47v-65.46L512 133.83z" fill="#009f5e"/><path d="M170.66 344.13L512 146.98v13.16L170.66 357.35.24 258.96V245.8l170.42 98.33zm.06 26.21L512 173.3v13.16l-341.28 197.1L0 285.12v-13.14l170.72 98.36z" fill="#00917f"/><path d="M512 146.98v13.16L170.66 357.35v-13.22L512 146.98zm0 26.32v13.16l-341.28 197.1v-13.22L512 173.3z" fill="#00ac65"/><path d="M62.52 268.5L0 232.36h0 0L341.33 35.29 512 133.83 170.67 331.01 62.52 268.5z" fill="#00c169"/><path d="M32.65 232.41l138.2 79.63L479.5 133.83l-138.15-79.7-308.7 178.28z" fill="#ffe6c6"/><path d="M447.28 133.83l-105.82-61.1L65.5 232.41l105.53 60.79 276.25-159.37z" fill="#00ac65"/><path d="M227.56 100.98l170.66 98.57v65.84l-113.54 65.37v-65.61l-170.81-98.53 113.69-65.64z" fill="#e5ac91"/><path d="M227.56 100.98l170.66 98.57-113.54 65.6-170.81-98.53 113.69-65.64z" fill="#ffd6a0"/><path d="M284.68 265.15v65.61l113.54-65.37v-65.84l-113.54 65.6z" fill="#e5ac91"/><path d="M129.13 157.81l83.32-48.11 170.61 98.57-83.18 48.08-170.75-98.54z" fill="#ffe6c6"/><path d="M383.06 208.27v65.86l-83.19 47.91.01-65.69 83.18-48.08z" fill="#ffcba1"/><path d="M328.42 82c9.77 5.64 24.54 6.25 33 1.37s7.4-13.41-2.37-19-24.54-6.25-33-1.37-7.4 13.38 2.37 19zm9.63 49.24c5.66 3.26 14.22 3.62 19.12.79s4.28-7.77-1.38-11-14.21-3.62-19.11-.79-4.28 7.76 1.37 11zM148.61 240.38c5.66 3.27 14.21 3.63 19.11.8s4.29-7.77-1.37-11-14.21-3.62-19.11-.79-4.24 7.73 1.37 10.99zm-97.27 1.84c9.77 5.63 24.54 6.25 33 1.36s7.4-13.41-2.37-19.05-24.54-6.25-33-1.37-7.4 13.42 2.37 19.06zM431 141.34c9.76 5.64 24.54 6.25 33 1.37s7.4-13.41-2.37-19.05-24.54-6.25-33-1.37-7.45 13.41 2.37 19.05zM153.35 301.59c9.77 5.63 24.54 6.25 33 1.36s7.4-13.41-2.37-19.05-24.54-6.25-33-1.37-7.4 13.47 2.37 19.06z" fill="#ffe6c6"/><path d="M346.92 210.1L208.7 130.36l-14.77 8.52 138.23 79.91 14.76-8.69zm-46.16 7.89L195.2 157.02l-14.69 8.53 105.57 60.86 14.68-8.42z" fill="#e6c190"/></svg>