<svg xmlns="http://www.w3.org/2000/svg" viewBox="0 0 512 508.65" xmlns:v="https://vecta.io/nano"><path d="M182.59,346H482.66A29.33,29.33,0,0,0,512,316.66v-260a29.34,29.34,0,0,0-29.34-29.34H182.59a29.35,29.35,0,0,0-29.34,29.34v260A29.34,29.34,0,0,0,182.59,346Z" fill="#6ec17d"/><path d="M291,336.61a7.81,7.81,0,0,1-2.12-.3,7.71,7.71,0,0,1-5.29-9.51L343.1,118.31a7.69,7.69,0,0,1,14.8,4.22L298.4,331a7.71,7.71,0,0,1-7.4,5.59Z" fill="#665e66"/><path d="M56.26,415.3s-24.18,7.21-32.48-1.09,0-29.58,0-29.58l41.08-16.81Z" fill="#f1d0a5"/><path d="M44.44 417.72c-7.37.93-16.25.9-20.66-3.5-8.29-8.3 0-29.58 0-29.58l11.73-4.81 7.38 4.81s-12.54 21.15 1.55 33.08z" fill="#f1b986"/><path d="M186.47 311.13a144.83 144.83 0 0 1 18.53 56.7l1.34 16.8s5.1 58.17-11.22 100h-51s12.73-59.3-12.62-84.63c-25.36 25.35-12.57 84.66-12.57 84.66h-51c-16.32-41.84-11.22-100-11.22-100H23.78c0-92 37.38-122.43 43.84-127h127.75c41.46 14.19 85.63 23.03 85.63 23.03l1.29 16.69.42 5.42c-26.2 15.75-96.26 8.33-96.26 8.33z" fill="#dfeaef"/><g fill="#b4d0d5"><path d="M282.73 302.8c-26.2 15.75-96.26 8.33-96.26 8.33l-6-14.78s63.64 14.13 101.85 1zM131.5 383.72a7.7 7.7 0 0 1-7.7-7.7V253.14a7.7 7.7 0 1 1 15.39 0V376a7.69 7.69 0 0 1-7.69 7.72z"/><path d="M158.88,261l13.66,33.72-41-10.5-41,10.5L104.11,261"/></g><path d="M195.07,484.63l-3.67,7.43-47.34-7.43s12.79-59.3-12.57-84.66c-25.35,25.36-12.56,84.66-12.56,84.66h-51c-16.32-41.83-11.22-100-11.22-100A113.86,113.86,0,0,1,58,367.83H205l1.34,16.8s5.11,58.17-11.22,100Z" fill="#665e66"/><path d="M85.08,257.62c-15.21,20.52-42.91,66.35-42.19,127H23.78c0-92,37.37-122.43,43.84-127Z" fill="#b4d0d5"/><path d="M83 484.63l-9.32 12-5.78-12c-16.32-41.83-11.22-100-11.22-100a113.86 113.86 0 0 1 1.32-16.8h24.24C77.1 387 70.75 426.91 83 484.63zm74.36 0h-13.31s12.79-59.3-12.56-84.66c25.87.03 39.18 44.55 25.87 84.66z" fill="#454045"/><path d="M52.62 508.65h66.31v-24H76.64a24 24 0 0 0-24.02 24z" fill="#aa593d"/><path d="M92,484.63a24,24,0,0,0-24,24H52.61a24,24,0,0,1,24-24Z" fill="#934d36"/><path d="M210.37 508.65h-66.31v-24h42.3a24 24 0 0 1 24.01 24z" fill="#aa593d"/><path d="M319.21 292.23v8.25A11.54 11.54 0 0 1 307.67 312h-15.11A11.54 11.54 0 0 1 281 300.48v-19.79h26.65a11.54 11.54 0 0 1 11.56 11.54z" fill="#f1d0a5"/><path d="M301 312h-8.41A11.53 11.53 0 0 1 281 300.48v-19.79h19.09c-3.84 11.63-1.81 23.2.85 31.32zm-63.18-126.85h.18a23.16 23.16 0 0 0 0-46.32H25a23.16 23.16 0 0 0 0 46.32h.15" fill="#f1b986"/><path d="M232.49 78.37a1044.52 1044.52 0 0 0-202.06 0A716.77 716.77 0 0 0 25.82 204a59.26 59.26 0 0 0 56.44 56.2q49.2 2.32 98.4 0a59.27 59.27 0 0 0 56.45-56.2 715.81 715.81 0 0 0-4.62-125.64z" fill="#f1d0a5"/><path d="M30.44,78.37q50.51-4.91,101-4.9a268.61,268.61,0,0,0-51.15,5q-4,63.42-2.34,126.83c.71,27.83,10.88,50.51,24.22,55.69q-10-.27-19.93-.75A59.26,59.26,0,0,1,25.82,204,716.78,716.78,0,0,1,30.44,78.37Z" fill="#f1b986"/><path d="M131.46,223a30.27,30.27,0,0,1-27.22-17.22,6.15,6.15,0,1,1,11.12-5.28,17.82,17.82,0,0,0,32.2,0,6.16,6.16,0,0,1,11.13,5.28A30.27,30.27,0,0,1,131.46,223Z" fill="#da4a54"/><path d="M187.56 113.2c-38.71 15-93.7 8.36-121.41-19.36 0 0-6.59 45-40.68 45l-14.87 5C-29.11-12 55.59 29.61 55.59 29.61c8-15.49 19.64-21.91 31.81-23.46a50.64 50.64 0 0 1 3.22-.29h.26c8.57-.45 17.25 1.29 25 3.77 2.69.86 5.26 1.82 7.67 2.8a116.33 116.33 0 0 1 18.23 9.37l.22.2c8.72-11.53 17-22 26.17-22a9.56 9.56 0 0 1 8.09 3.73c6.59 8.65 1.17 29.43.74 31.07v.07-.07l.05-.12C178.25 31.73 191.35 0 214.83 0a18.67 18.67 0 0 1 4 .4c17.51 3.87 3.8 34.5 2.29 37.74v.09c0 .08-.06.14-.08.17.75-1 30.07-38.18 43.1-21.1h0c13.14 17.32-37.86 80.93-76.56 95.88z" fill="#f4dd45"/><path d="M264.1 17.3h0c-6.59-6.58-29.41 24.48-43.12 21.12l.1-.19c0 .08-.06.14-.08.17.75-1 30.07-38.18 43.1-21.1zM218.83.4c-9.9-2.24-19.07 16.59-24.26 30a11.08 11.08 0 0 1-16.16 5.41L177 34.9h0v-.07h0l.05-.12C178.25 31.73 191.35 0 214.83 0a18.67 18.67 0 0 1 4 .4zM87.4 6.15c-28.32 5-39 69.93-21.26 87.69 0 0-6.58 45-40.67 45l-14.87 5C-29.12-12 55.59 29.61 55.59 29.61 63.58 14.12 75.23 7.7 87.4 6.15zm88.89-2.42c-10-9.95-16.59 41.1-39 49.27s-24.51-2.27-24.51-2.27h0c11-4.08 20.35-17 29.24-28.75h0l.81-1.07 1-1.37C151.93 9 159.71 0 168.2 0a9.56 9.56 0 0 1 8.09 3.73z" fill="#ecc32e"/><g fill="#dfeaef"><circle cx="88.1" cy="162.59" r="24.36"/><circle cx="174.83" cy="162.59" r="24.36"/></g><path d="M244.53 134.81a7.7 7.7 0 0 0-10.53-2.54l-29.5 18.07a32.05 32.05 0 0 0-60.74 4.55h-24.54a32.06 32.06 0 0 0-60.75-4.55L29 132.27a7.7 7.7 0 0 0-8 13.13l35.42 21.7a32.06 32.06 0 0 0 62.86 3.19h24.49a32.06 32.06 0 0 0 62.86-3.19L242 145.4a7.7 7.7 0 0 0 2.53-10.59zM88.1 179.26a16.67 16.67 0 1 1 16.66-16.67 16.69 16.69 0 0 1-16.66 16.67zm86.73 0a16.67 16.67 0 1 1 16.67-16.67 16.68 16.68 0 0 1-16.67 16.67z" fill="#454045"/><path d="M376.54 85.29l-11-27.48a6 6 0 0 0-11.17 0l-11 27.48a3.37 3.37 0 0 0 6.25 2.5l1.84-4.61h17l1.84 4.61a3.37 3.37 0 0 0 3.13 2.11 3.41 3.41 0 0 0 1.24-.24 3.36 3.36 0 0 0 1.87-4.37zm-22.37-8.84L360 62l5.8 14.48zm62.67-8.29a10 10 0 0 0 1.47-5.16 10.11 10.11 0 0 0-10.09-10.09H397a3.36 3.36 0 0 0-3.36 3.36v31.39A3.35 3.35 0 0 0 397 91h13.45a12.32 12.32 0 0 0 6.38-22.86zm-16.47-8.52h7.85a3.36 3.36 0 0 1 0 6.72h-7.85zm10.09 24.66h-10.09V73.09h10.09a5.61 5.61 0 1 1 0 11.21zm46.82 7.85a20.28 20.28 0 0 1-3.86-.38 19.07 19.07 0 1 1 13.48-35.13 5.56 5.56 0 0 1 2.7 4.8v2.68a3.37 3.37 0 0 1-6.73 0v-2a12.34 12.34 0 1 0 1.44 21.11 3.37 3.37 0 1 1 3.85 5.52 18.93 18.93 0 0 1-10.88 3.4z" fill="#fff"/></svg>