<svg xmlns="http://www.w3.org/2000/svg" xmlns:xlink="http://www.w3.org/1999/xlink" viewBox="0 0 469.337 469.337" xmlns:v="https://vecta.io/nano"><circle cx="245.339" cy="202.67" r="202.67" fill="#f57c04"/><circle cx="245.339" cy="202.67" r="181.33" fill="#f55600"/><circle cx="202.669" cy="202.67" r="160" fill="#744ec1"/><circle cx="202.669" cy="202.67" r="138.67" fill="#653bba"/><circle cx="202.669" cy="202.67" r="96" fill="#5628b4"/><g fill="#3e0aa9"><circle cx="202.669" cy="202.67" r="53.33"/><path d="M202.669 42.67c-29.455 0-53.333 23.878-53.333 53.333s23.878 53.333 53.333 53.333h.092.033.059.04.053.04.052.043.048.045.047.046.044l.048-.001h.029l.123-.002h.025l.06-.001.03-.001.057-.001.034-.001.058-.001.03-.001.062-.001.026-.001.064-.002h.021l.069-.002h.005l.327-.009h.015l.069-.002.021-.001.066-.002.022-.001.066-.002.023-.001.064-.002.023-.001.068-.003h.005l.219-.009.04-.002.041-.002.053-.002.035-.002.063-.003.025-.001.073-.004.016-.001.378-.02a10.67 10.67 0 0 0-.6-21.317c-.205 0-.411.006-.618.018-.621.036-1.247.053-1.876.054-17.673 0-32-14.327-32-32s14.327-32 32-32c5.845.736 11.19-3.49 11.926-9.335a10.67 10.67 0 0 0-9.251-11.915c-.886-.114-1.781-.114-2.676-.086h0zM140 235.631c-29.455 0-53.333 23.878-53.333 53.333s23.878 53.333 53.333 53.333h.092.033.059.04.053.04.052.043.048.045.047.046.044l.048-.001h.029l.123-.002h.025l.06-.001.03-.001.057-.001.034-.001.058-.001.03-.001.062-.001.026-.001.064-.002h.021l.069-.002h.005l.327-.009h.015l.069-.002.021-.001.066-.002.022-.001.066-.002.023-.001.064-.002.023-.001.068-.003h.005l.219-.009.04-.002.041-.002.053-.002.035-.002.063-.003.025-.001.073-.004.016-.001.378-.02a10.67 10.67 0 0 0-.6-21.316c-.205 0-.411.006-.618.018-.621.036-1.247.053-1.876.054-17.673 0-32-14.327-32-32s14.327-32 32-32a10.67 10.67 0 0 0 10.667-10.667A10.67 10.67 0 0 0 140 235.631h0zm-38.769-119.257c-29.455 0-53.333 23.878-53.333 53.333s23.878 53.333 53.333 53.333h.092.033.059.04.053.04.052.043.048.045.047.046.044l.048-.001h.029l.123-.002h.025l.06-.001.03-.001.057-.001.034-.001.058-.001.03-.001.062-.001.026-.001.064-.002h.021l.069-.002h.005l.327-.009h.015l.069-.002.021-.001.066-.002.022-.001.066-.002.023-.001.064-.002.023-.001.068-.003h.005l.219-.009.04-.002.041-.002.053-.002.035-.002.063-.003.025-.001.073-.004.016-.001.378-.02a10.67 10.67 0 0 0-.6-21.317c-.205 0-.411.006-.618.018-.621.036-1.247.053-1.876.054-17.673 0-32-14.327-32-32s14.327-32 32-32a10.67 10.67 0 0 0 10.678-10.656 10.67 10.67 0 0 0-10.656-10.678c-.009-.002-.016-.002-.023-.002h0zm202.869 0c-29.455 0-53.333 23.878-53.333 53.333s23.878 53.333 53.333 53.333h.092.033.059.04.053.04.052.043.048.045.047.046.044l.048-.001h.029l.123-.002h.025l.06-.001.03-.001.057-.001.034-.001.058-.001.03-.001.062-.001.026-.001.064-.002h.021l.069-.002h.005l.327-.009h.015l.069-.002.021-.001.066-.002.022-.001.066-.002.023-.001.064-.002.023-.001.068-.003h.005l.219-.009.04-.002.041-.002.053-.002.034-.002.063-.003.025-.001.073-.004.016-.001.378-.02a10.67 10.67 0 0 0-.6-21.317c-.205 0-.411.006-.618.018-.621.036-1.247.053-1.876.054-17.673 0-32-14.327-32-32s14.327-32 32-32a10.67 10.67 0 0 0 10.678-10.656 10.67 10.67 0 0 0-10.656-10.678c-.007-.002-.014-.002-.022-.002h0zm-38.714 119.257c-29.455 0-53.333 23.878-53.333 53.333s23.878 53.333 53.333 53.333h.092.033.059.04.053.04.052.043.048.045.047.046.044l.048-.001h.029l.123-.002h.025l.06-.001.03-.001.057-.001.034-.001.058-.001.03-.001.062-.001.026-.001.064-.002h.021l.069-.002h.005l.327-.009h.015l.069-.002.021-.001.066-.002.022-.001.066-.002.023-.001.064-.002.023-.001.068-.003h.005l.219-.009.04-.002.041-.002.053-.002.034-.002.063-.003.025-.001.073-.004.016-.001.378-.02a10.67 10.67 0 0 0-.6-21.316c-.205 0-.411.006-.618.018-.621.036-1.247.053-1.876.054-17.673 0-32-14.327-32-32s14.327-32 32-32a10.67 10.67 0 0 0 10.667-10.667 10.67 10.67 0 0 0-10.667-10.67h0z"/></g><path d="M405.335 213.337v106.667c0 35.346 28.654 64 64 64h0 0v85.333h0c-70.692 0-128-57.307-128-128h0v-128h64z" fill="#5628b4"/><g fill="#f7b236"><use xlink:href="#B"/><use xlink:href="#B"/></g><path d="M202.669 21.337c-100.148 0-181.333 81.186-181.333 181.333s81.186 181.333 181.333 181.333 181.333-81.186 181.333-181.333h0c0-100.148-81.185-181.333-181.333-181.333h0zm0 21.333c29.455 0 53.333 23.878 53.333 53.333s-23.878 53.333-53.333 53.333-53.333-23.878-53.333-53.333 23.877-53.333 53.332-53.333zM50.499 153.227c9.102-28.014 39.19-43.345 67.204-34.243s43.345 39.19 34.243 67.204-39.19 43.345-67.204 34.243-43.344-39.19-34.243-67.204zm132.62 167.086c-17.313 23.83-50.666 29.113-74.496 11.799s-29.113-50.666-11.8-74.496 50.666-29.113 74.496-11.8h0c23.83 17.315 29.113 50.667 11.8 74.497zm-12.45-117.643c0-17.673 14.327-32 32-32s32 14.327 32 32-14.327 32-32 32-32-14.327-32-32zm126.045 129.443c-23.83 17.313-57.183 12.03-74.496-11.799s-12.03-57.183 11.799-74.496 57.183-12.03 74.496 11.799 12.031 57.182-11.799 74.496zm23.882-111.683c-28.013 9.102-58.101-6.229-67.204-34.242s6.229-58.101 34.242-67.204 58.101 6.229 67.204 34.242-6.229 58.102-34.242 67.204z" fill="#f9c15d"/><path d="M202.669.003h-.159-.027-.138-.016-.148-.012-.143-.033-.107-.083-.031l-.28.001h-.027-.081c-11.781.126-21.23 9.779-21.104 21.56.125 11.716 9.676 21.138 21.392 21.105h.062l.934-.003c88.224 0 160 71.776 160 160s-71.776 160-160 160a158.97 158.97 0 0 1-62.203-12.529c-10.851-4.59-23.369.485-27.959 11.336s.485 23.369 11.336 27.959c.006.003.013.005.019.008a201.55 201.55 0 0 0 9.193 3.62l.005.002.142.052.001.001.141.051.008.003.139.051.004.001.14.051.007.003.141.051h.001l.144.052.003.001.144.052h.001l.141.051.009.003.137.049.008.003.137.049.01.004.137.049.008.003.135.048.016.006.13.046.015.005.131.046.016.006.13.046.015.005.128.045.023.008.123.043.022.008.124.043.023.008.124.043.021.007.122.043.027.009.12.042.025.009.122.042.025.009.122.042.023.008.122.042.028.01.118.041.027.01.118.04.031.011.117.04.028.009.118.04.03.01.116.04.031.01.115.039.034.012.113.038.033.011.113.038.038.013.108.036.038.013.109.037.037.013.111.037.035.012.11.037.041.013.107.036.04.013.106.035.044.014.104.034.042.014.105.035.043.014.104.034.044.015.104.034.044.015.105.035.04.013.108.035.041.013.107.035.04.013.106.035.043.014.107.035.038.012.106.035.048.015.099.032.049.016.1.032.049.016.099.032.048.016.1.032.049.016.1.032.044.014.104.033.047.015.102.032.046.015.1.032.055.018.092.029.054.017.095.03.054.017.096.03.05.016.097.031.053.017.096.03.051.016.096.03.054.017.095.03.052.016.095.03.058.018.09.028.057.017.09.028.061.019.089.027.057.018.092.028.061.019.086.027.063.019.087.026.063.019.087.026.061.018.088.027.064.02.085.026.062.019.087.026.064.019.085.026.061.018.088.027.064.019.086.026.061.018.089.026.061.018.089.026.06.018.087.026.066.02.084.025.064.019.084.025.068.02.083.024.064.019.085.025.066.019.083.024.066.019.084.025.066.019.085.024.063.018.085.025.069.02.081.023.067.02.081.024.071.02.08.023.066.019.084.024.068.019.082.023.068.02.081.023.071.02.08.023.066.019.083.024.07.02.079.022.07.02.081.023.068.019.083.023.066.019.083.023.07.02.079.022.071.02.08.022.071.02.079.022.069.019.082.023.072.02.077.021.071.02.082.023.068.019.083.023.067.018.083.023.071.02.079.021.072.02.079.022.072.02.079.022.07.019.081.022.072.019.079.022.069.019.082.022.07.019.081.022.07.019.079.021.076.02.075.02.076.02.075.02.076.02.077.021.07.018.081.022.072.019.08.021.07.018.08.021.074.019.078.021.072.019.078.02.077.02.074.019.075.02.078.02.074.019.077.02.074.019.077.02.079.02.072.018.079.02.074.019.08.021.071.018.08.02.072.018.082.021.07.018.081.021.071.018.082.021.07.018.08.02.072.018.083.021.068.017.082.021.071.018.081.02.073.018.077.019.075.018.08.02.072.018.079.019.074.018.077.019.077.019.074.018.075.018.088.021.062.015.089.022.064.016.087.021.067.016.083.02.068.017.09.022.062.015.087.021.066.016.087.021.066.016.083.02.07.017.086.02.066.016.085.02.07.016.084.02.068.016.083.019.071.017.082.019.072.017.077.018.076.018.08.019.072.017.08.018.072.017.087.02.066.015.083.019.07.016.084.019.07.016.083.019.068.016.09.02.063.014.087.02.068.015.088.02.065.015.087.02.066.015.091.02.062.014.09.02.064.014.092.021.061.014.089.02.064.014.091.02.063.014.089.019.065.014.09.02.063.014.088.019.066.014.092.02.061.013.091.02.064.014.089.019.066.014.085.018.069.015.088.019.065.014.087.019.068.014.087.019.067.014.085.018.07.015.087.018.067.014.086.018.069.015.086.018.068.014.085.018.071.015.084.018.07.014.081.017.074.015.082.017.072.015.082.017.072.015.089.018.064.013.09.018.064.013.09.018.065.013.087.017.068.014.088.018.067.013.088.018.066.013.091.018.064.013.087.017.068.014.09.018.064.013.087.017.069.013.086.017.069.013.085.017.069.014.088.017.068.013.085.016.07.014.086.017.068.013.085.016.07.013.085.016.071.013.081.016.075.014.083.016.072.014.082.016.073.014.085.016.07.013.083.016.074.014.081.015.075.014.08.015.074.014.085.016.071.013.084.016.071.013.089.016.066.012.088.016.069.013.085.016.07.013.087.016.068.012.091.016.065.012.088.016.068.012.089.016.068.012.086.015.07.012.086.015.07.012.085.015.07.012.089.016.067.012.085.015.073.013.083.015.072.012.085.015.071.012.089.015.068.012.086.015.071.012.086.015.07.012.089.015.066.011.094.016.062.01.091.015.066.011.09.015.066.011.089.015.068.011.089.015.068.011.088.015.068.011.09.015.066.011.089.015.067.011.095.015.061.01.095.015.061.01.103.016.052.008.101.016.057.009.102.016.054.009.105.017.052.008.107.017.05.008.098.015.063.01.091.014.066.01.089.014.069.011.086.013.072.011.085.013.072.011.089.014.07.01.083.013.074.011.087.013.07.011.087.013.069.01.095.014.062.009.091.014.067.01.09.013.068.01.087.013.072.011.088.013.069.01.087.013.072.01.09.013.067.01.087.013.071.01.089.013.069.01.086.012.072.01.089.013.068.01.088.012.07.01.092.013.066.009.092.013.066.009.092.013.066.009.086.012.072.01.087.012.071.01.085.011.074.01.085.011.073.01.083.011.076.01.084.011.075.01.079.01.079.01.082.011.077.01.079.01.079.01.083.011.075.01.081.01.077.01.083.011.075.01.084.011.074.009.088.011.07.009.085.011.074.009.085.011.074.009.085.01.074.009.085.01.074.009.082.01.076.009.089.011.069.008.09.011.068.008.094.011.064.008.094.011.064.008.095.011.064.007.09.011.069.008.089.01.071.008.09.01.066.008.097.011.063.007.09.01.07.008.09.01.069.008.087.01.073.008.086.01.074.008.085.01.074.008.086.01.074.008.085.009.074.008.083.009.077.008.08.009.079.009.083.009.076.008.081.009.079.008.083.009.076.008.083.009.077.008.084.009.076.008.082.008.078.008.083.009.076.008.085.009.074.007.088.009.072.007.085.008.076.008.085.008.075.008.084.008.076.007.084.008.076.007.083.008.077.008.084.008.076.007.081.008.079.007.083.008.077.007.083.008.077.007.081.008.079.007.081.008.079.007.081.008.079.007.078.007.081.007.083.007.076.007.086.008.074.007.088.008.072.006.089.008.072.006.087.007.074.007.081.007.079.007.078.007.083.007.075.006.085.007.08.007.079.007.082.007.079.006.089.007.071.006.092.007.068.006.091.007.07.006.089.007.071.006.09.007.07.005.089.007.072.006.083.006.078.006.083.006.076.006.102.008.057.004.098.007.064.005.09.007.07.005.082.006.081.006.077.006.083.006.074.005.088.006.067.005.094.007.064.004.096.007.071.005.09.006.067.005.094.006.064.004.098.007.057.004.104.007.065.004.096.006.065.004.096.006.063.004.099.006.066.004.094.006.078.005.083.005.081.005.08.005.083.005.079.005.075.005.087.005.076.004.085.005.068.004.094.006.063.004.098.006.066.004.096.006.076.004.085.005.092.005.067.004.099.005.064.004.083.005.08.004.074.004.089.005.068.004.094.005.076.003.084.004.081.004.081.004.076.004.087.004.066.003.096.005.07.003.091.005.076.004.086.004.08.004.082.004.074.003.089.004.064.003.098.004.061.003.1.004.071.003.091.004.066.003.096.004.07.003.092.004.073.003.089.004.085.003.077.003.086.003.076.003.083.003.08.003.08.003.082.003.087.003.075.003.092.003.07.003.081.003.083.003.069.002.092.003.092.003.07.002.089.003.074.003.081.003.082.003.075.002.089.003.065.002.098.003.051.002.111.003.057.002.105.003.071.002.092.003.076.002.087.002.083.002.079.002.083.002.08.002.087.002.075.002.083.002.081.002.079.002.082.002.102.002.061.001.115.003.047.001.109.002.055.001.098.002.065.001.091.002.072.001.09.002.073.001.077.001.087.002.062.001.101.002.066.001.098.002.059.001.103.002.081.001.083.001.076.001.087.001.082.001.081.001.069.001.095.001.061.001.102.001.049.001.279.003h.033l.131.001h.029l.46.004.104.001h.061.076.088.048l.115.001.249.001.733.001c111.93 0 202.667-90.737 202.667-202.667S314.599.003 202.669.003h0z" fill="#f59500"/><path d="M66.693 61.335a21.22 21.22 0 0 0-15.908 7.149l-.071.08-.012.014-.185.21-.081.093-.014.016-.081.093-.02.022-.045.051-.179.205-.266.304-.307.363-.329.371a203.27 203.27 0 0 0-14.919 19.556l-.004.006-1.428 2.158-.003.004-.079.12-.007.011-.076.117-.006.009-.076.117-.007.011-.493.762-.005.009-.076.118-.007.012-.07.108-.016.025-.067.105-.012.019-.074.116-.005.008-.408.64-.003.005-.075.118-.011.018-.069.109-.011.018-.07.111-.01.017-.075.119-.003.004-.402.641-.01.015-.07.112-.011.017-.067.108-.014.023-.067.108-.011.018-.068.11-.012.018-.072.116-.007.01-.318.515-.006.01-.072.116-.012.021-.066.107-.013.021-.064.104-.017.027-.062.102-.015.024-.064.104-.015.025-.072.118-.004.006-.236.389-.007.011-.071.117-.011.019-.063.105-.02.033-.058.096-.018.03-.059.098-.017.029-.064.106-.012.02-.068.112-.009.015-.309.517-.011.018-.064.108-.013.025-.06.1-.019.033-.057.095-.02.033-.055.093-.021.037-.062.105-.01.017-.072.122-.003.006-.23.392-.007.012-.066.112-.019.032-.056.095-.021.037-.051.088-.024.041a2.17 2.17 0 0 0-.053.092l-.02.034-.053.091-.023.039-.055.096-.018.03-.067.116-.007.012-.149.258-.02.034-.053.093-.025.042-.048.084-.029.05-.043.076-.03.052a3.02 3.02 0 0 0-.044.077l-.029.049-.048.085-.023.04-.051.089-.024.041-.06.105-.011.019-.149.263-.005.008-.066.116-.024.042-.049.086a1.13 1.13 0 0 1-.027.047l-.045.08-.028.05-.046.081-.027.048-.043.076-.03.053-.045.08-.027.047-.049.088-.022.039-.053.094-.021.037-.068.123-.034.061-.038.068-.029.053-.043.076-.031.056-.04.071-.033.059-.038.069-.034.06-.04.071-.029.053-.042.077-.03.055-.041.073-.029.054-.04.072-.032.059-.069.125-.002.004-.068.123-.027.05-.043.078-.031.055-.039.072-.032.058-.039.072-.033.06-.035.064-.036.065-.035.064-.035.064-.034.062-.036.066-.035.063-.036.067-.038.07-.03.056-.068.126-.024.045-.046.086-.028.051-.041.077-.03.055-.04.074-.032.06-.036.067-.033.061-.036.068-.035.064-.034.064-.033.062-.039.073-.03.056-.046.086-.022.041-.063.118-.033.063-.041.077-.03.057-.037.069-.033.063-.036.067-.035.065-.032.06-.036.069-.033.063-.034.065-.035.065-.033.063-.036.069a1.27 1.27 0 0 1-.033.062l-.031.059-.038.071-.021.041-.076.145-.035.066-.032.062-.035.066-.035.067-.032.062-.036.069-.032.062-.033.063-.036.069-.033.064-.033.064-.034.066-.031.06-.038.073-.029.056-.036.07-.032.061-.077.15-.022.043-.04.077-.025.05-.036.071-.033.064-.033.063-.033.064-.035.068-.033.064-.033.066-.032.062-.035.069-.033.064-.034.067-.033.064-.033.066-.035.068-.032.063-.026.052-.076.151-.025.051-.037.073-.029.058-.036.072-.029.06-.035.068-.031.062-.036.071-.029.058-.035.07-.031.061-.036.071-.029.059-.035.069-.03.06-.037.074-.016.032-.147.297-.027.054-.037.074a1.36 1.36 0 0 1-.027.054l-.037.075-.029.058-.035.072-.029.058-.035.071-.032.065-.033.066-.03.062-.035.07s-.02.04-.031.063l-.033.067-.036.075-.027.055-.062.127-.031.063-.033.068-.033.069-.031.064-.031.063-.035.071-.031.065-.031.064-.034.07-.028.058-.036.075-.028.058-.033.07-.031.064-.034.071-.026.055-.036.076-.023.049-.068.141-.033.068-.031.064-.032.066-.033.069-.031.064-.033.07-.029.06-.033.071-.031.065-.031.066-.031.065-.032.067-.033.068-.03.064-.033.072-.029.061-.042.089-.02.043-.061.13-.026.055s-.025.054-.036.078l-.029.064-.031.067-.033.07-.029.063-.031.066-.031.068-.031.066-.032.069-.029.063-.031.068-.032.069-.028.06-.033.072-.029.063-.032.07-.059.128-.029.064-.031.066-.033.071-.03.064-.029.065-.032.069s-.019.042-.029.063l-.033.071-.031.067-.028.061-.034.074-.027.059-.034.074-.025.056-.035.077-.023.05-.038.085-.004.009-.15.332-.022.049-.037.082-.021.049-.037.082-.023.052-.036.081-.023.053-.035.078-.025.055-.036.08-.022.05-.036.082-.022.05-.038.085-.02.045-.131.295-.023.052-.035.078-.023.054-.035.079-.025.055-.034.077-.024.055-.035.079-.024.054-.035.081-.021.049-.037.084-.022.052-.036.082-.019.042-.132.302-.021.048a3.28 3.28 0 0 1-.038.087l-.02.044-.036.084-.021.051-.035.079-.025.057-.031.073-.027.062-.033.076-.025.058-.032.075-.024.057-.035.08-.008.052-.037.087-.011.026-.144.338-.012.027-.038.089-.02.048-.038.091-.016.038-.04.094-.018.042-.038.089-.019.046-.036.084-.023.055-.035.081-.02.046-.036.088-.018.042-.128.306-.02.047-.035.086-.021.049-.035.085-.021.05-.034.081-.022.053-.035.084-.021.051-.033.081-.023.054-.035.084-.02.047-.035.085-.021.052-.178.434-.02.048-.033.08-.021.054-.033.08-.023.058-.031.077-.024.058-.03.074-.027.068-.027.069-.026.064-.03.074-.024.06-.031.077-.019.046-.126.313-.015.038-.035.088-.02.049-.032.079-.023.058-.033.081-.021.052-.033.082-.021.054-.033.084-.019.049-.035.087-.017.042-.038.096-.007.016-.129.327-.021.055-.031.078-.022.057a2.58 2.58 0 0 1-.031.079l-.023.059-.031.078-.022.057a2.58 2.58 0 0 1-.031.079l-.023.059-.031.078-.021.055-.032.082-.021.056-.031.08-.024.061-.028.074-.031.079-.051.134-.021.054-.03.077-.023.062-.026.067-.027.072-.026.069-.025.067-.028.073-.023.062-.03.078-.023.063-.027.07-.028.074-.025.065-.027.073-.025.065-.025.068-.045.119-.032.085-.025.068-.025.067-.029.078-.022.06a2.6 2.6 0 0 0-.03.08l-.021.055-.03.08-.023.062-.028.075-.023.061-.029.077-.023.061-.029.077-.021.057-.03.081-.02.054-.031.084-.005.014-.077.212-.015.04-.031.085-.019.053-.032.086-.019.052-.03.083-.02.055-.03.082-.021.057-.029.078-.021.06-.029.081-.02.055-.029.081-.021.058-.029.082-.018.05-.111.309-.016.046-.031.085-.019.054-.029.08-.021.061-.028.078-.021.058-.028.08-.023.063-.026.073-.023.067-.025.071a1.84 1.84 0 0 0-.024.068l-.026.073-.019.053-.102.292-.023.065-.025.073-.023.065-.027.077-.021.061-.027.077-.023.066-.024.069-.025.072a1.93 1.93 0 0 1-.024.07l-.023.067-.025.072-.022.062-.027.081-.019.054-.028.082-.023.066-.049.143-.022.064-.025.075-.022.064-.025.075-.023.067-.025.074-.021.063-.026.078-.021.062-.027.079-.019.057-.029.084-.02.059-.027.079-.02.06-.027.081-.016.049-.058.172-.017.051-.027.079-.02.059-.026.077-.021.066-.024.071-.023.071-.023.068-.023.071-.024.073-.022.067a1.52 1.52 0 0 0-.024.072l-.023.071-.023.07-.025.077-.02.061-.027.083-.02.06-.04.122-.025.077-.025.075-.023.071-.023.071-.024.075-.02.063-.025.078-.021.064-.023.074-.022.068-.023.071-.023.072-.023.072-.02.061-.026.08-.02.062-.025.078-.022.069-.042.132-.023.073-.025.077-.02.064-.024.076-.021.068-.021.066-.024.076-.023.071-.021.067-.024.075-.021.066-.025.078-.02.063-.024.076-.02.066-.025.079-.014.046-.098.315-.017.054-.024.079-.019.061-.023.076-.021.068-.023.075-.02.064-.023.076-.022.071-.021.07s-.016.054-.022.073l-.021.069-.023.076-.02.068-.023.076-.02.066-.04.132-.015.051-.03.098-.021.07-.021.072-.021.07-.021.073-.023.074a1.27 1.27 0 0 1-.02.066l-.023.077-.019.064-.024.08-.018.062-.023.077-.02.066-.023.079-.018.059-.024.081a1.35 1.35 0 0 1-.02.068l-.033.114-.029.098-.018.063-.023.077s-.014.047-.021.073l-.021.072-.02.068-.022.075-.02.066-.023.079-.02.066-.021.071-.021.074-.02.07-.021.071-.022.076-.026.061-.024.085-.018.06-.031.106-.029.099-.021.076-.018.063-.023.082-.018.065-.022.078-.02.068-.021.072-.021.073-.02.071-.02.07-.021.077-.019.066-.023.082-.017.06a3.08 3.08 0 0 1-.025.091l-.015.054-.08.285-.014.052-.025.093-.02.062-.021.076-.02.071-.021.077-.018.065-.021.077-.019.068-.021.078-.018.066-.021.079-.018.065-.023.085-.016.06-.023.083-.026.095-.028.104-.02.073-.019.07-.021.078-.018.065-.021.076-.018.069-.02.073-.02.074-.018.067-.021.079-.018.067-.02.077-.018.067-.021.08-.018.066-.023.087-.014.056-.022.083-.036.138-.016.063s-.014.051-.02.073l-.019.071-.018.069-.02.078-.018.069-.02.074-.019.072-.019.075-.018.07-.02.074-.018.071-.02.074-.018.071-.018.068-.02.078-.017.067-.029.114-.026.102-.015.057-.022.088-.016.065-.02.078-.018.072-.018.073-.018.071-.019.075-.018.073-.018.072-.018.072-.018.074-.018.071-.02.082-.015.06-.025.097-.012.049-.035.141-.016.063-.02.081-.017.068-.02.079-.017.068-.018.076-.018.073-.018.071-.02.075-.018.072-.017.071-.02.082-.015.061-.021.086-.015.062-.022.091-.012.054-.035.144-.006.022-.03.125-.011.045-.023.099-.014.059-.021.089-.014.059-.02.085-.016.068-.018.077s-.011.046-.016.069-.013.053-.019.078l-.017.067-.021.087-.013.056-.021.091-.014.059a3.99 3.99 0 0 1-.025.105l-.009.039-.033.144a.84.84 0 0 1-.012.048l-.023.101c-.005.017-.008.037-.013.054l-.02.089-.016.068-.018.079-.016.068-.016.076-.016.071-.018.079-.015.067-.018.08-.015.066-.021.091-.012.053-.024.107-.009.04-.033.147-.007.032-.025.112-.017.066-.018.082-.014.063-.019.085-.014.064-.018.083-.014.063-.018.084-.015.067a2.46 2.46 0 0 1-.018.083l-.013.06-.02.092-.013.058-.02.091-.012.056-.02.092-.022.102-.021.098-.012.056-.02.089-.014.066-.018.083-.014.065-.018.08-.014.067-.018.084-.014.063-.018.082-.014.067-.017.081-.014.067s-.011.053-.017.079l-.014.07-.016.077-.022.103-.023.109-.014.061-.018.087-.013.064-.018.085-.015.07-.016.076-.014.071-.016.076-.015.075-.015.071s-.01.05-.016.076l-.014.068-.017.082-.013.065a1.84 1.84 0 0 0-.016.079l-.016.076-.014.073-.029.142-.01.054-.019.091-.014.069-.016.082-.013.065-.016.083-.014.066-.016.082-.014.069-.015.075-.015.074-.015.076-.014.07-.016.083-.012.064-.018.094-.011.055-.02.102-.014.073-.023.118-.01.055-.018.095-.012.059-.017.088-.012.064-.016.083-.013.069-.016.081-.012.064-.017.087-.012.063-.017.088-.011.059-.018.093-.011.058-.024.13-.003.015-.028.151-.006.031-.022.119-.008.046-.019.103-.01.051-.018.1-.01.052-.018.095a1.17 1.17 0 0 0-.01.058l-.017.093-.011.058-.016.09-.011.061-.017.094-.01.055-.019.105-.008.044-.027.149-.003.016-.024.132-.01.057-.016.091-.011.063-.016.088-.011.062-.016.088-.011.063-.015.087-.012.065-.015.088-.01.058-.017.097-.009.054-.019.109-.007.039-.021.125-.005.028-.026.15-.005.033-.02.115-.01.055-.016.096-.01.057-.016.091-.01.062-.015.089-.01.062-.014.087-.01.063-.015.089-.01.063-.014.082-.012.07-.014.086-.01.062-.025.147-.006.037-.018.112-.01.058-.015.091-.01.063-.015.091-.009.056-.015.096-.01.057-.015.094-.009.057-.014.09-.01.065-.014.09-.01.058-.016.105-.007.045-.047.299-.008.052-.015.099-.01.059-.014.089-.01.068-.012.081-.011.073-.012.075-.011.075-.012.079s-.007.046-.01.07l-.012.083-.01.066-.014.096-.008.052-.018.122-.005.028-.023.152-.004.026-.018.123-.008.058-.014.092-.009.063-.012.086-.01.069-.012.082a1.59 1.59 0 0 0-.01.068l-.012.083-.01.069-.013.089-.008.058-.014.095-.008.059-.014.1-.007.049-.021.149-.005.036-.016.117-.008.054-.013.095-.009.066-.012.087-.008.062-.012.09-.008.059-.014.097-.007.054-.013.094-.008.061-.013.095-.007.055-.015.108-.006.042-.018.135-.003.018-.02.149-.007.056-.013.096-.008.058-.012.094-.008.064-.011.087-.008.065-.012.086-.008.067-.011.086a1.55 1.55 0 0 0-.008.063l-.012.089-.008.064-.011.09-.008.061-.013.103-.007.049-.019.152-.003.02-.016.13-.007.054-.012.098-.007.061-.011.089-.008.065-.011.089-.008.064-.01.087-.008.065-.011.089-.016.065-.011.089-.007.062-.013.106-.005.045-.036.304-.005.045-.012.108-.007.056-.013.095-.007.059-.011.094-.007.061-.01.094-.007.057-.011.096-.007.062-.01.092-.007.058-.012.104-.005.049-.034.305-.005.041-.012.112-.007.054-.01.098-.007.059-.01.093-.007.067-.008.081-.008.073-.009.081-.008.071-.008.085-.007.066-.01.092-.007.062-.01.09-.007.063-.016.148-.005.043-.011.11-.006.06-.01.091-.007.068-.008.084-.007.073-.008.079-.007.071-.008.083-.007.071-.008.082-.007.068-.009.089-.006.064-.01.103-.005.048-.03.308-.004.045-.01.106-.006.062-.008.093-.006.061-.008.092-.007.063-.008.092-.006.063-.008.093-.005.058-.009.1-.005.055-.009.104-.005.049-.012.127-.002.026-.014.154-.003.034-.01.119-.005.054-.008.099-.005.06-.008.093-.006.062-.008.092-.005.065-.008.086-.005.067-.008.088-.006.067-.007.09-.005.062-.008.094-.007.063-.012.151-.001.016-.011.136-.004.052-.008.105-.005.055-.008.096-.005.064-.007.091-.005.066-.007.087a1.51 1.51 0 0 1-.005.067l-.007.086-.005.07-.007.08-.005.073-.008.096-.004.056-.01.139-.001.014-.011.155-.003.044-.008.109-.005.061-.007.093-.005.062-.007.092-.005.066-.006.088-.005.068-.006.084-.005.073-.006.087-.004.061-.007.102-.004.054-.008.114-.003.04-.01.152-.003.049-.007.107a1.17 1.17 0 0 0-.004.059l-.006.091-.005.075-.005.079-.005.076-.005.078-.005.075-.005.083-.005.069-.005.085-.005.07-.005.09-.004.062-.006.098-.003.057-.008.14-.003.036-.007.13-.004.062-.005.093-.004.064-.005.09-.004.071-.005.083-.004.07-.005.085-.004.069-.005.088-.004.066-.005.087-.004.071-.005.088-.003.065-.006.108-.003.047-.008.153-.003.052-.005.101-.003.071-.005.084-.003.071-.005.083-.003.071-.004.088-.003.066-.005.087-.003.068-.005.094-.003.059-.005.106-.003.048-.005.124-.002.032-.007.157-.001.014-.007.141-.002.048-.005.107-.003.059-.004.097-.003.063-.004.091-.003.067-.004.091-.003.061-.004.097-.003.06-.003.096-.003.06-.004.097-.002.06-.012.308-.002.05-.004.106-.002.061-.003.094-.002.062-.003.098-.002.057-.003.097-.003.063-.003.093-.003.065-.003.089-.002.068-.003.094-.002.06-.003.113-.001.043-.005.154-.001.047-.003.109-.002.064-.003.091-.001.067-.003.09-.002.066-.003.09-.001.068-.003.087-.001.07-.003.088-.001.066-.003.095-.001.061-.003.119-.001.033-.003.159v.006l-.003.151-.001.046-.002.107-.001.062-.002.095-.001.066-.002.089-.001.068-.001.09-.001.067-.002.089-.001.066-.002.096-.001.06-.001.097-.001.06-.002.108-.001.048-.003.154-.001.051-.001.105-.001.064-.001.091-.001.069-.001.089-.001.065s-.001.065-.001.092l-.001.067-.001.088s0 .043-.001.068l-.001.09-.001.068-.001.094-.001.061-.001.103-.001.055-.001.154v.034l-.001.12v.061l-.001.098v.063l-.001.092-.001.067v.093l-.001.065v.089l-.001.069v.249l-.001.064v.561l.001.136v.212l.001.043.001.19v.048l.001.144v.063l.001.134v.06l.001.164v.028l.001.187.001.062.001.132.001.066.001.135a1.14 1.14 0 0 0 .001.058l.002.188v.031l.002.157.001.066.002.131.001.063.002.144.001.048.003.184.001.064.002.125.001.077.002.12.001.069.003.173.001.046.003.154.001.071.003.118.001.078.003.121.001.068.004.178.002.072.003.115.002.085.003.106.002.084.003.125.003.096.004.141.002.086.003.101.003.09.003.1.003.088.005.141.003.119.003.094.003.099.003.088.003.098.003.087.007.201.002.062.004.111.003.073.003.11.003.074.004.112.002.05.008.233.003.058.004.113.003.073.005.111.003.065.016.401.003.055a4.78 4.78 0 0 0 .005.122l.002.055.005.126.002.033.012.28.001.019.006.132.002.047.006.131.002.039.021.45.001.013.007.145.001.031.007.145.001.004.024.469.001.021.008.15.001.013.035.637v.003c.283 5.019.745 9.986 1.388 14.901l.069.479.059.479.018.133.001.005.033.237.009.064.005.034.138.986a21.26 21.26 0 0 0 21.013 18.189c11.823.001 21.409-9.583 21.41-21.407 0-.982-.067-1.962-.202-2.934l-.127-.917-.064-.429-.058-.489c-.897-6.928-1.347-13.908-1.347-20.894A159.94 159.94 0 0 1 81.462 98.216l.315-.374.292-.326.613-.697c7.773-8.864 6.916-22.344-1.917-30.153a21.18 21.18 0 0 0-14.072-5.331h0z" fill="#f69900"/><defs ><path id="B" d="M202.669.003C90.739.003.002 90.74.002 202.67s90.737 202.667 202.667 202.667S405.335 314.6 405.335 202.67 314.598.003 202.669.003h0zm0 42.667c29.455 0 53.333 23.878 53.333 53.333s-23.878 53.333-53.333 53.333-53.333-23.878-53.333-53.333 23.877-53.333 53.332-53.333zM50.499 153.227c9.102-28.014 39.19-43.345 67.204-34.243s43.345 39.19 34.243 67.204-39.19 43.345-67.204 34.243-43.344-39.19-34.243-67.204zm132.62 167.086c-17.313 23.83-50.666 29.113-74.496 11.799s-29.113-50.666-11.8-74.496 50.666-29.113 74.496-11.8h0c23.83 17.315 29.113 50.667 11.8 74.497zm-12.45-117.643c0-17.673 14.327-32 32-32s32 14.327 32 32-14.327 32-32 32-32-14.327-32-32zm126.045 129.443c-23.83 17.313-57.183 12.03-74.496-11.799s-12.03-57.183 11.799-74.496 57.183-12.03 74.496 11.799 12.031 57.182-11.799 74.496zm23.882-111.683c-28.013 9.102-58.101-6.229-67.204-34.242s6.229-58.101 34.242-67.204 58.101 6.229 67.204 34.242-6.229 58.102-34.242 67.204z"/></defs></svg>