<svg xmlns="http://www.w3.org/2000/svg" xmlns:xlink="http://www.w3.org/1999/xlink" height="512" width="512" xmlns:v="https://vecta.io/nano"><path d="M377.218 214.34h.172c14.806 0 26.803-12.007 26.803-26.803 0-14.806-11.997-26.814-26.803-26.814-.193 0-.385 0-.578.01H131.374c-.193-.01-.385-.01-.578-.01-14.806 0-26.803 12.007-26.803 26.814 0 14.796 11.997 26.803 26.803 26.803h.172" fill="#f1b986"/><path d="M371.053 90.73a1209.3 1209.3 0 0 0-233.919 0c-6.051 48.481-7.833 96.961-5.347 145.442 1.81 35.291 30.05 63.382 65.349 65.049 37.972 1.793 75.943 1.793 113.915 0 35.298-1.667 63.539-29.757 65.349-65.049 2.486-48.481.704-96.962-5.347-145.442z" fill="#f1d0a5"/><path d="M137.138 90.722c38.98-3.78 77.971-5.665 116.962-5.665-19.74 0-39.48 1.908-59.22 5.723a1662.26 1662.26 0 0 0-2.71 146.834c.826 32.21 12.598 58.475 28.045 64.466l-23.078-.861c-35.292-1.663-63.535-29.755-65.35-65.048-2.477-48.482-.697-96.966 5.351-145.449z" fill="#f1b986"/><path d="M254.093 262.279c-13.63 0-26.214-7.958-32.059-20.275a7.73 7.73 0 0 1 3.668-10.293 7.73 7.73 0 0 1 10.293 3.668 20.13 20.13 0 0 0 18.099 11.447 20.13 20.13 0 0 0 18.1-11.447 7.73 7.73 0 0 1 10.293-3.667 7.73 7.73 0 0 1 3.667 10.293c-5.847 12.316-18.431 20.274-32.061 20.274z" fill="#c32430"/><g fill="#454045"><ellipse cx="197.021" cy="193.574" rx="11.16" ry="16.612"/><ellipse cx="311.166" cy="193.574" rx="11.16" ry="16.612"/></g><path d="M319.038 131.045c-44.817 17.313-108.479 9.679-140.563-22.405 0 0-7.619 52.092-47.092 52.092l-17.213 5.789c-45.973-180.457 52.084-132.24 52.084-132.24 9.258-17.941 22.742-25.368 36.831-27.16a61.19 61.19 0 0 1 3.729-.345c.1 0 .199-.008.299-.015 9.924-.528 19.97 1.485 28.898 4.357a124.09 124.09 0 0 1 8.875 3.247c11.218 4.587 19.388 9.74 21.103 10.843l.337.23C276.418 12.083 286.043 0 296.625 0c4.342 0 7.343 1.662 9.357 4.319 7.634 10.008 1.363 34.074.858 35.966l-.023.084c.008-.015.015-.046.031-.084l.054-.138C308.256 36.731 323.418 0 350.608 0c1.715 0 3.254.161 4.625.467 20.268 4.479 4.403 39.932 2.657 43.684l-.046.107-.092.191c.865-1.103 34.81-44.197 49.894-24.426.008.015.008.015.015.023 15.216 20.055-43.829 93.694-88.623 110.999z" fill="#f4dd45"/><path d="M407.646 20.023h-.008c-7.627-7.619-34.044 28.347-49.909 24.449l.115-.214-.092.191c.866-1.102 34.81-44.196 49.894-24.426zM355.233.467c-11.457-2.602-22.077 19.206-28.078 34.687-2.902 7.487-11.89 10.491-18.715 6.261l-1.639-1.016.015-.031.023-.084h.008l.054-.138C308.256 36.731 323.418 0 350.608 0c1.715 0 3.255.161 4.625.467zm-152.15 6.654c-32.788 5.781-45.177 80.952-24.61 101.519 0 0-7.619 52.092-47.092 52.092l-17.213 5.789c-45.974-180.457 52.084-132.24 52.084-132.24 9.257-17.941 22.742-25.368 36.831-27.16zm102.899-2.802c-11.524-11.524-19.204 47.574-45.147 57.038s-28.37-2.634-28.37-2.634v-.008c12.772-4.724 23.553-19.656 33.852-33.286l.95-1.24 1.194-1.577C277.789 10.429 286.793 0 296.625 0c4.342 0 7.343 1.662 9.357 4.319zm-98.848 2.45l-.322.008c.1 0 .199-.008.299-.015z" fill="#ecc32e"/><path d="M409.069 243.772l-133.901 29.019-.002.001v-.003h-38.333v.002l-.002-.001-133.901-29.019c-13.656-2.966-26.568 7.448-26.568 21.419v161.203a21.93 21.93 0 0 0 17.28 21.428l143.189 31.031.002-.001v.001h38.333v-.001l.002.001 143.189-31.031a21.93 21.93 0 0 0 17.28-21.428V265.191c0-13.971-12.912-24.385-26.568-21.419z" fill="#dfeaef"/><path d="M450.055 281.188V455.33a23.69 23.69 0 0 1-18.667 23.148L276.707 512l-19.965-12.628V302.565l19.965-13.166 144.648-31.348c14.752-3.205 28.7 8.045 28.7 23.137z" fill="#da4a54"/><path d="M256.742 302.565v196.807L235.293 512 80.612 478.478c-10.889-2.359-18.667-12.002-18.667-23.148V281.188c0-15.092 13.949-26.342 28.701-23.138l144.648 31.348z" fill="#c32430"/><path d="M235.295 512V289.397h41.41V512" fill="#dd636e"/><path d="M328.93 348.285a7.73 7.73 0 0 1-1.629-15.279l85.556-18.543c4.174-.904 8.284 1.744 9.188 5.914a7.73 7.73 0 0 1-5.914 9.188l-85.556 18.543c-.553.12-1.103.177-1.645.177zm0 28.711a7.73 7.73 0 0 1-1.629-15.279l85.556-18.543c4.174-.903 8.284 1.744 9.188 5.914a7.73 7.73 0 0 1-5.914 9.188l-85.556 18.543c-.553.12-1.103.177-1.645.177z" fill="#454045"/><use xlink:href="#B" fill="#f1d0a5"/><use xlink:href="#C" fill="#f1b986"/><use xlink:href="#B" x="404.712" fill="#f1d0a5"/><use xlink:href="#C" x="404.712" fill="#f1b986"/><defs ><path id="B" d="m57.695 365.329h-8.101c-11.963 0-21.66-9.698-21.66-21.66v-19.443c0-11.963 9.698-21.66 21.66-21.66h8.101c11.963 0 21.66 9.698 21.66 21.66v19.443c0 11.963-9.698 21.66-21.66 21.66z"/><path id="C" d="M61.857 364.921c-1.339.278-2.74.412-4.162.412h-8.108c-11.96 0-21.654-9.704-21.654-21.665v-19.44a21.66 21.66 0 0 1 21.654-21.665h8.108c1.422 0 2.823.134 4.162.412-9.962 1.937-17.482 10.714-17.482 21.253v19.44c0 10.54 7.52 19.317 17.482 21.253z"/></defs></svg>