<svg xmlns="http://www.w3.org/2000/svg" viewBox="0 0 306.53 306.04" xmlns:v="https://vecta.io/nano"><path d="M90.67,267.08c-8,13.07-24,32.7-50.55,39l6.1-20.1S22.65,301.63,0,306c4.41-22.72,20.1-46.22,20.1-46.22L0,265.92c6.26-26.59,25.89-42.51,39-50.55l55.66-11.69Z" fill="#fcc400"/><path d="M111.75,86c5.77-5.77,11.74-11.3,17.85-16.6C103,62,69.94,71.63,45.23,96.33c-13,13.06-22.25,28.75-26.61,45.38A4.41,4.41,0,0,0,19.78,146a4.33,4.33,0,0,0,1.41.95,97.29,97.29,0,0,1,30.69,20.57C66.55,138.69,87.09,110.7,111.75,86Z" fill="#fe3745"/><path d="M53.25 104.35c20.41-20.41 46.51-30.51 70-29.23q3.16-2.88 6.38-5.68C103 62 69.94 71.63 45.23 96.34a100.8 100.8 0 0 0-26.61 45.37 4.41 4.41 0 0 0 1.16 4.29 4.33 4.33 0 0 0 1.41.95c1.87.79 3.71 1.65 5.52 2.56a100.88 100.88 0 0 1 26.54-45.16z" fill="#b7092b"/><path d="M237.1 176.93c-5.31 6.12-10.84 12.09-16.61 17.85-24.66 24.66-52.65 45.2-81.43 59.87a97.37 97.37 0 0 1 20.56 30.69 4.65 4.65 0 0 0 .95 1.42 4.43 4.43 0 0 0 4.25 1.15 100.77 100.77 0 0 0 45.38-26.61c24.71-24.71 34.33-57.77 26.9-84.37zM60.27 192.11L44 208.41a5 5 0 0 0 0 7.08l47.08 47.08a5 5 0 0 0 7.07 0l16.3-16.31z" fill="#fe3745"/><path d="M56 220.44l16.3-16.3-12-12L44 208.41a5 5 0 0 0 0 7.08l12 12a5 5 0 0 1 0-7.05z" fill="#b7092b"/><path d="M283.68 108.91l-86.06-86.06C167 37.7 137.25 59.13 111 85.33c-27.23 27.24-49.49 58.54-64.36 90.5a4.43 4.43 0 0 0 .88 5L125.71 259a4.43 4.43 0 0 0 5 .88c32-14.86 63.25-37.12 90.49-64.36 26.2-26.23 47.63-55.98 62.48-86.61z" fill="#eef6ff"/><path d="M56.7 185.85c14.87-32 37.13-63.26 64.37-90.49 26.2-26.21 56-47.64 86.57-62.49l-10-10C167 37.7 137.25 59.13 111.05 85.33c-27.24 27.24-49.5 58.54-64.37 90.5a4.43 4.43 0 0 0 .88 5l10 10a4.42 4.42 0 0 1-.86-4.98z" fill="#d9eafc"/><path d="M220.27,45.5,208.54,57.24a5,5,0,0,0,0,7.07L242.23,98a5,5,0,0,0,7.07,0L261,86.26Z" fill="#ea2a3d"/><path d="M216.55 65.25l11.74-11.73-8-8-11.75 11.72a5 5 0 0 0 0 7.07l8 8a5 5 0 0 1 .01-7.06z" fill="#b7092b"/><path d="M304.52,2A4.42,4.42,0,0,0,301.85.75c-28.59-3-61.3,3.09-94.59,17.63-3.54,1.55-7.07,3.21-10.59,4.93l86.55,86.56c1.72-3.53,3.38-7.06,4.93-10.6,14.54-33.29,20.64-66,17.64-94.59A4.48,4.48,0,0,0,304.52,2Z" fill="#fe3745"/><path d="M306.25,10.3q-.18-2.84-.46-5.61A4.48,4.48,0,0,0,304.52,2,4.42,4.42,0,0,0,301.85.75c-28.59-3-61.3,3.09-94.59,17.63-3.54,1.55-7.07,3.21-10.59,4.93l10,10c3.52-1.73,7.05-3.39,10.59-4.93C248.42,14.81,279,8.59,306.25,10.3Z" fill="#b7092b"/><g transform="matrix(.707107 -.707107 .707107 .707107 -40.17 162.92)"><circle cx="176.58" cy="129.96" r="51.02" fill="#445ea0"/><circle cx="176.58" cy="129.96" r="32.73" fill="#69cdff"/></g><path d="M161.92 115.3a32.72 32.72 0 0 0-3.85 41.7 32.73 32.73 0 1 1 45.5-45.5 32.72 32.72 0 0 0-41.65 3.8z" fill="#52bbef"/></svg>