<svg xmlns="http://www.w3.org/2000/svg" viewBox="0 0 464 416" xmlns:v="https://vecta.io/nano"><path d="M24,96H80v40H24Z" fill="#4f5659"/><path d="M464 160v224a32 32 0 0 1-32 32H32a32 32 0 0 1-32-32V160a32 32 0 0 1 32-32h56l24-32h224l16 32h80a32 32 0 0 1 32 32z" fill="#7e8589"/><path d="M280.94 0H167.06c-13.77 0-26 10.93-30.35 24L112 96h224l-24.71-72c-4.35-13.07-16.58-24-30.35-24z" fill="#6a7073"/><circle cx="376" cy="280" r="56" fill="#9aa3a8"/><ellipse cx="56" cy="176" rx="24" ry="16" fill="#4f5659"/><path d="M104,232v16H96V416H80V247.7c-19.49-1.43-39.65-8-55.26-18.07C13.89,222.6,5.55,214.15,0,204.77V160a31.86,31.86,0,0,1,8-21.17V176c0,33,42.16,56,80,56Z" fill="#6a7073"/><path d="M376 272q0 4-.22 8A144 144 0 0 1 240 415.78q-4 .23-8 .22c-2.68 0-5.35-.08-8-.22A144 144 0 0 1 88.22 280q-.23-4-.22-8l.22-8A144 144 0 0 1 224 128.22q4-.23 8-.22l8 .22A144 144 0 0 1 375.78 264q.22 4 .22 8z" fill="#4f5659"/><g fill="#ffd33a"><path d="M400 96h16a16 16 0 0 1 16 16v16h-48v-16a16 16 0 0 1 16-16zM280 64H168l8-32h96z"/><circle cx="408" cy="176" r="16"/></g><path d="M240 128.22V160a8 8 0 0 1-16 0v-31.78q4-.23 8-.22l8 .22zM339.32 176l-22.47 22.47a8 8 0 0 1-11.31-11.31L328 164.68A143.68 143.68 0 0 1 339.32 176zM376 272q0 4-.22 8H344a8 8 0 0 1 0-16h31.78q.22 4 .22 8zm-36.68 96A143.68 143.68 0 0 1 328 379.32l-22.47-22.47a8 8 0 0 1 11.31-11.31zM240 384v31.78q-4 .23-8 .22c-2.68 0-5.35-.08-8-.22V384a8 8 0 0 1 16 0zm-81.54-27.15L136 379.32A143.68 143.68 0 0 1 124.68 368l22.47-22.47a8 8 0 0 1 11.31 11.31zM128 272a8 8 0 0 1-8 8H88.22q-.23-4-.22-8l.22-8H120a8 8 0 0 1 8 8zm30.46-73.54a8 8 0 0 1-11.31 0L124.68 176A143.68 143.68 0 0 1 136 164.68l22.47 22.47a8 8 0 0 1 0 11.29z" fill="#414649"/><circle cx="232" cy="272" r="112" fill="#69b0ee"/><circle cx="232" cy="272" r="56" fill="#419be9"/><g fill="#eeefee"><circle cx="265.86" cy="230.82" r="16.85"/><circle cx="199.56" cy="316.5" r="8.5"/></g></svg>