<svg xmlns="http://www.w3.org/2000/svg" viewBox="0 0 100.4 43.41"><defs><style>.cls-1,.cls-5{fill:#fff;stroke-miterlimit:10;}.cls-1{stroke:#0c3649;stroke-width:0.4px;}.cls-2{fill:#e91e63;}.cls-3{fill:#d81b60;}.cls-4{fill:#c2185b;}.cls-5{stroke:#000;stroke-width:0.1px;}</style></defs><g id="Layer_2" data-name="Layer 2"><g id="Layer_1-2" data-name="Layer 1"><g id="Layer_2-2" data-name="Layer 2"><g id="Layer_1-2-2" data-name="Layer 1-2"><path class="cls-1" d="M10.75,21.21,10.7,21h0S10.74,21.11,10.75,21.21Z"/><path class="cls-1" d="M70.74,43a.57.57,0,0,1-.11.11l.1-.11Z"/><path class="cls-1" d="M16.45,36.41l.09,0-.58.37C16.12,36.62,16.28,36.51,16.45,36.41Z"/><path class="cls-1" d="M100.2,22.09V41.73A1.43,1.43,0,0,1,98.61,43H70.73l-.1.11a.63.63,0,0,1-.89-.17.68.68,0,0,1-.11-.32V31.8A111.72,111.72,0,0,0,50.2,30.71a101.49,101.49,0,0,0-19.39,1.14V42.56a.63.63,0,0,1-1.14.38H1.79A1.44,1.44,0,0,1,.2,41.73V22.09A1.34,1.34,0,0,1,1.68,21h9l.05.25V21h0a2,2,0,0,0-.06-.34L9.35,14.13A2.29,2.29,0,0,1,10.09,12,34.65,34.65,0,0,1,13.2,9.56C32.73-3.68,73.31-2.88,90.31,12a2.3,2.3,0,0,1,.74,2.18l-1.28,6.49L89.7,21h9A1.34,1.34,0,0,1,100.2,22.09Z"/><path class="cls-1" d="M16.45,36.41l.09,0-.58.37C16.12,36.62,16.28,36.51,16.45,36.41Z"/><path class="cls-1" d="M10.75,21.21,10.7,21h0S10.74,21.11,10.75,21.21Z"/><path class="cls-1" d="M16.45,36.41l.09,0-.58.37C16.12,36.62,16.28,36.51,16.45,36.41Z"/><path class="cls-2" d="M30,43H1.79A1.43,1.43,0,0,1,.2,41.73V22.09A1.34,1.34,0,0,1,1.68,21h9.19l1.47,7.41,1.36,6.91.07.34c.21,1.06.2,1.41.67,1.65a.64.64,0,0,0,.8-.1s7.7-.85,13.12,4A13.87,13.87,0,0,1,30,43Z"/><path class="cls-3" d="M5.82,43h-4A1.44,1.44,0,0,1,.2,41.75V22.09A1.34,1.34,0,0,1,1.68,21h4a1.33,1.33,0,0,0-1.45,1.1V41.73A1.43,1.43,0,0,0,5.82,43Z"/><path class="cls-2" d="M100.2,22.09V41.73A1.43,1.43,0,0,1,98.61,43H70.4a15.14,15.14,0,0,1,1.6-1.8c5.42-4.87,13.13-4,13.13-4a.62.62,0,0,0,.79.1.57.57,0,0,0,.18-.12.88.88,0,0,0,.29-.5l.2-1c.15-.74,1.26-6.39,1.43-7.25L89.53,21h9.19A1.34,1.34,0,0,1,100.2,22.09Z"/><path class="cls-3" d="M95.5,21,94,28.37l-1.5,7.25-.22,1.08a1,1,0,0,1-1.08.7H85.5v-.06a.81.81,0,0,0,.67-.19.88.88,0,0,0,.29-.5l.2-1c.14-.68,1.27-6.42,1.43-7.25L89.53,21Z"/><path class="cls-3" d="M72.36,41.2c5.36-4.81,12.8-4,12.8-4-4-3-10-4.84-15.57-5.74V42.55a.64.64,0,0,0,.65.63.63.63,0,0,0,.49-.24A14.11,14.11,0,0,1,72.36,41.2Z"/><path class="cls-4" d="M73.62,32.31c-1.35-.33-2.71-.6-4-.81v11a.64.64,0,0,0,.65.63.63.63,0,0,0,.49-.24,14.11,14.11,0,0,1,1.63-1.74c.41-.36.83-.69,1.26-1Z"/><path class="cls-3" d="M15.24,37.24S23.52,36.3,28.9,42c.17.19.35.38.52.59s.17.2.25.31a.64.64,0,0,0,.9.1.63.63,0,0,0,.24-.49V31.34C29.68,31.56,20.4,33.24,15.24,37.24Z"/><path class="cls-4" d="M26.43,34.22c1.49-.61,3-1.11,4.38-1.52V31.34c-1.13.22-10.41,1.9-15.57,5.9,0,0,8.28-.94,13.66,4.8.17.19.35.38.52.59s.17.2.25.31a.64.64,0,0,0,.9.1.63.63,0,0,0,.24-.49V39.17a17.35,17.35,0,0,0-3.93-1.45C24.76,37.22,24.47,35,26.43,34.22Z"/><path class="cls-2" d="M91.05,14.13l-1.28,6.49-.12.59-1.86,9.38c-.36,1.86-.66,3.35-1,5.11l-.2,1a.87.87,0,0,1-.28.49.57.57,0,0,1-.18.12.71.71,0,0,1-.31.1.91.91,0,0,1-.33,0,.89.89,0,0,1-.31-.15c-3.7-2.83-9.39-4.39-14.52-5.27A110.32,110.32,0,0,0,50.2,30.71c-10.23-.44-27.69,1-35,6.54A.9.9,0,0,1,14,37.1a1,1,0,0,1-.17-.38l-1.17-6.13c-.41-2.05-1.47-7.42-1.86-9.38l-.11-.59L9.35,14.13A2.29,2.29,0,0,1,10.09,12c18-15.68,62.26-15.67,80.22,0A2.29,2.29,0,0,1,91.05,14.13Z"/><path class="cls-3" d="M17.74,35.66a17.61,17.61,0,0,0-2.5,1.59A.9.9,0,0,1,14,37.1a1,1,0,0,1-.17-.38l-1.21-6.13-2-10L9.35,14.13A2.29,2.29,0,0,1,10.09,12,34.65,34.65,0,0,1,13.2,9.56l1.5,8.62,1.68,9.63Z"/><path class="cls-5" d="M21.88,15.42c0-.56-.46-.86-1.09-.86s-1.08.27-1.08.73c0,.62,1,.64,1.27.66,1.19.16,2.69.47,3.05,2a5.9,5.9,0,0,1,.06.59c0,1.75-1.71,2.75-3.3,2.75a3,3,0,0,1-3.22-2.76,1.93,1.93,0,0,1,0-.24h2.08c0,.83.69,1,1.16,1,.67,0,1.21-.19,1.21-.67S21,18,20.74,18c-1.36-.13-3-.43-3.12-2.36h0c-.09-1.85,1.42-2.95,3.2-2.95a2.84,2.84,0,0,1,3.11,2.53c0,.08,0,.16,0,.24Z"/><path class="cls-5" d="M27,16h2.2V12.77h2.05v8.4h-2V17.92H27v3.25H25v-8.4h2Z"/><path class="cls-5" d="M36.9,14.64H35.51v4.69H36.9v1.84H32.07V19.33h1.39V14.64H32.07V12.77H36.9Z"/><path class="cls-5" d="M45.58,13.07l-3.24,8.12H40.85l-3.23-8v-.38h2.1l1.39,3.5.5,1.62.49-1.62,1.39-3.5h2.09Z"/><path class="cls-5" d="M50.44,19.93H47.57l-.47,1.24H44.91l3.36-8.49h1.46l3.49,8.49H50.91Zm-2-2.1-.08.19h1.4l0-.14L49,16.06Z"/><path class="cls-5" d="M64.18,17.63l1.6-4.86h2V13l-2.72,8.19H63.3l-1.06-2.91-1,2.91H59.4L56.68,13v-.25h2l1.61,4.86,1-2.94H63Z"/><path class="cls-5" d="M73,19.93H70.18l-.47,1.24H67.52l3.35-8.49h1.47l3.49,8.49H73.51Zm-2-2.1-.07.19h1.39v-.14l-.65-1.82Z"/><path class="cls-5" d="M83.06,13l-3,4.78v3.4H78V17.78L75,13V12.8h2.26l.84,1.34.9,1.69L80,14l.77-1.24H83Z"/></g></g></g></g></svg>