<svg xmlns="http://www.w3.org/2000/svg" viewBox="0 0 157.1 157.1"><defs><style>.cls-1{fill:#be63f9;}</style></defs><g id="Layer_2" data-name="Layer 2"><g id="Layer_1-2" data-name="Layer 1"><path class="cls-1" d="M154,123.79,33.3,3.12a10.7,10.7,0,0,0-15.1,0L3.12,18.2a10.7,10.7,0,0,0,0,15.1L123.81,154a10.68,10.68,0,0,0,15.09,0L154,138.9A10.72,10.72,0,0,0,154,123.79Z"/><path class="cls-1" d="M123.79,3.13,3.12,123.8a10.68,10.68,0,0,0,0,15.09L18.2,154a10.68,10.68,0,0,0,15.1,0L154,33.29a10.68,10.68,0,0,0,0-15.09L138.9,3.12A10.72,10.72,0,0,0,123.79,3.13Z"/></g></g></svg>