<svg xmlns="http://www.w3.org/2000/svg" viewBox="0 0 192.02 170.67"><defs><style>.cls-1{fill:#be63f9;}</style></defs><g id="Layer_2" data-name="Layer 2"><g id="Layer_1-2" data-name="Layer 1"><path class="cls-1" d="M181.33,0H10.67A10.69,10.69,0,0,0,0,10.67V32A10.68,10.68,0,0,0,10.67,42.67H181.34A10.68,10.68,0,0,0,192,32V10.67A10.72,10.72,0,0,0,181.33,0Z"/><path class="cls-1" d="M181.33,64H10.67A10.69,10.69,0,0,0,0,74.67V96a10.68,10.68,0,0,0,10.67,10.67H181.34A10.68,10.68,0,0,0,192,96V74.67A10.72,10.72,0,0,0,181.33,64Z"/><path class="cls-1" d="M181.33,128H10.67A10.69,10.69,0,0,0,0,138.67V160a10.68,10.68,0,0,0,10.67,10.67H181.34A10.68,10.68,0,0,0,192,160V138.67A10.72,10.72,0,0,0,181.33,128Z"/></g></g></svg>